<svg xmlns="http://www.w3.org/2000/svg" width="23.5" height="20.2" viewBox="52.3 53.8 23.5 20.2"><path d="M75.7 57.9c-.2-.4-.9-.3-1.4-.4h-1.1l.5-1c0-.4.3-.7.2-1.2l.3-.6c.1-.2.3-.5.1-.7 0-.2-.3-.2-.6-.2l-.2.1-1.3 1.4-.1.1-.4.2c-.3.2-.5.5-.9.6a6 6 0 00-1.8-.4c-1.2 0-2.3.2-3 .7-1 .4-1.6 1-2.2 1.7 0 .3-.4.3-.4.7l-.1.6c0 .1.2.4 0 .5-.9-.1-1.5-.6-2.2-1-.7-.3-1.5-.6-2-1a6 6 0 01-1.8-1.4c-.2-.3-.6-.5-.7-.9-.4-.2-.2-1-.7-.9-.4 0-.4.2-.5.4 0 .2-.4.2-.4.5-.2 1.2-.6 2-.6 3.3l.6 1c-.4.1-.7.3-.9.6 0 1 .4 1.6.8 2.3.1.4.3.7.6 1 0 .2.2.2.3.4l.1.2c0 .1.3.2.1.2-.4.2-1 .1-1.3.4a2 2 0 000 1.1c0 .3.3.3.3.5.5.5 1.1.8 1.7 1.2l1.8.3c0 .4-.3.6-.6.8-.8.4-1.8.4-2.7.7l-1.6.2c-.3.2-.8.1-1 .3-.2 0-.2 0-.3.2-.1.4.1.7.4.9 0 .2.3.2.4.3l.5.4c.5.5 1.2.8 1.9 1.1l2.5.5c.9.2 1.9.2 2.8.3h3.4c.5-.3 1.1-.4 1.6-.8.6-.2 1-.6 1.5-.9 1-.7 2-1.3 2.6-2.3l.4-.8c.3-.1.4-.4.6-.6l1-1.4 1-1.6.2-.9c.2-.2.2-.7.4-.9v-.6c.1-1.2 0-2.4-.2-3.4.6-.1 1.1-.3 1.6-.6.5-.2 1-.6.8-1.2zm-3.4 4c-.2.9-.6 1.4-1 2l-.1 1c-.2.2-.3.6-.4 1l-.5.8-1.2 1.6-1.3 1.5-1.4 1.3a5 5 0 00-1.3.7 5 5 0 00-.7.3c-.1.1-.5.1-.6.3l-3.6.1-3-.3c-1-.2-1.5-.8-2.3-1 .1-.3.6-.2 1-.3 0-.2.3 0 .4-.2h.5c.6-.2 1.2-.3 1.7-.6.3-.2.4-.5.7-.6 0-.2 0-.4.2-.5l.2-.8c0-.2.3-.3.2-.6 0-.2 0-.4-.2-.4 0-.2-.4 0-.5-.2l-.6-.1H58c-.8-.1-1.3-.5-1.9-.8.5-.3 1-.4 1.4-.8.5 0 1 0 1-.6 0-.7-.7-.7-1.2-.8-.8-.7-1.2-1.7-1.8-2.6l.7-.4c.5 0 .6-.3.7-.5 0-.5-.3-.6-.6-.8l-.7-.8.1-2.4v.1l.9 1.2c.5.4 1 .9 1.5 1.1.5.4 1.2.6 1.6 1l1.7 1c.7.1 1 .6 2 .5l.6-.3c.3-.4 0-1 .1-1.6.3-.6.8-1 1.3-1.5l.8-.5c.4 0 .7-.2 1-.4l1-.1h1.3l.7.1c.2.2.4.4.7.4.8.7 1.3 1.7 1.4 3V62zm.3-5.6c-.1.3-.2.7-.6.8l-.1-.2c0-.2.2-.2.2-.3.2 0 .3-.3.5-.3 0 0 .1 0 0 0zm-5.5 3l.5.4c.1.2.3.3.6.4 0-.2.4 0 .4-.2.2 0 .2-.3.3-.3 0-.6-.1-1-.4-1.4-.7-.4-1.7 0-1.4 1.1z"/></svg>
