<svg xmlns="http://www.w3.org/2000/svg" width="101.6" height="34.1"><path d="M19.1 21.5c0-2.7-.5-5.4-.4-8 0-2.2.3-4.4-.4-6.5l.1-.7c.2-1-3.2-.5-3.8.4-.3.3-.5.6-.3 1v.2c-.6 3.2-1.5 6.3-2.6 9.4L10.4 21l-1.6-3.4c-1.4-3.4-2.6-6.9-4.3-10.2.2-1.5-3.2-1.4-3.9 0a8.6 8.6 0 00-.4 5.2c.3 2 .3 4 .4 6.2 0 4 .3 7.9.4 11.9-.4.4-.5.9-.1 1.3l.6.6c.9.7 3.5.1 3.5-1.3 0-4.1-.3-8.2-.5-12.3a98 98 0 01.2-.8c.6 1.6 1.3 3.2 2.2 4.6.8 1.5 1.3 3.1 1.8 4.7-.2.2-.3.5-.3.7 0 .2.1.3.3.4.6.5 1.8.3 2.5 0l.8-.4c.4-.3 1-.7.8-1.2l-.1-.3 1-4c.2-1.3.7-2.7 1.2-4l.2 1.8c.2 2.6 0 5 0 7.6 0 .9 0 1.7.2 2.5 0 .3.4 1.8.3 1.9-.6.6-.4 1.2.4 1.4.9.2 2 0 2.8-.7 1.2-1.1.6-2.9.3-4.3-.4-2.3.1-5 0-7.3zm8.4.7c0-2-.8-3.9-.8-5.9 0-2.3.2-4.6-.1-6.9-.1-.7-4 .1-4 1 .4 2.2.2 4.3.2 6.4 0 2 .5 4 .7 6 .3 2 0 4 .2 6.1.1 1 .7 2.8 0 3.6-.3.5 1.5.4 1.6.3.8-.1 1.8-.4 2.3-1 .7-.8.2-2.4 0-3.4-.2-2 0-4.2-.1-6.2zm16.3-3.3c-2-2.8-5.9-.8-8.5-1.6-1.4-.4-1.4-2.3-1.4-3.4 0-1.4-.1-2.7-.3-4.1-.1-1 0-2.2.7-3l.9-.3h1c1.6-.1 4.6.2 4 2.4-.2 1 3.6.4 4-.6 1.1-4.6-7.4-3.7-9.8-3.1-2.2.6-4.6 1.8-4.7 4.4-.1 1.2.2 2.4.3 3.6 0 1.4-.2 2.8.3 4.1 1 3 5.5 1.6 7.8 1.7 3.8.3 2.6 5.5 2.7 8 0 1.2 1.2 3.4.2 4.4-.6.7-2 .7-2.8.8-.8 0-2.2.3-2.7-.5-1-1.4 0-3.8-.1-5.4-.2-.9-4.1 0-4 1 .4 2.7-1.4 6.2 2.4 6.7a18 18 0 007.5-1c1.2-.4 2.3-.9 3.3-1.8s.7-2.3.4-3.5c-.7-3 .7-6.3-1.2-8.8zm17.4-.2c-.2-3.8-.7-7.6-.8-11.3 0-2-4-1.3-4 .3.1 3.6.6 7.2.8 10.8v.2l-5.9.2c.2-4.6-.6-9.2-.4-13.8 0-.6-3.9-.1-4 1 0 4.5.7 9 .5 13.4l-.2 6.4.3 3.3c.2 1 .5 2.3.2 3.3-.3.8 3.5.3 3.8-.7.6-1.8-.2-4-.4-5.8-.1-1.8 0-3.5.1-5.3 2-.1 4-.3 6.1 0a160.4 160.4 0 00.5 7.6c0 1 .2 2.5-.2 3.5-.8 2 3.2 1.9 3.7.3.7-1.8.5-4.2.4-6.1-.1-2.5-.5-4.9-.5-7.3zM78 23.1c-.9-2.7-2.3-5.1-3.5-7.8l2.9-5.8c.8-1.9 1.4-3.9 3-5.1.7-.5.6-1-.2-1s-2 .2-2.7.7a10.7 10.7 0 00-3.2 4.3l-3 6-.2.5c-.5.4-.8.8-.6 1.3a72 72 0 01-2.5 4.6c-.3-5.5-1-11-1.2-16.6 0-1.3-4-.5-3.9 1 .3 7 1.2 13.8 1.3 20.6v.1a60.8 60.8 0 01-.2 5.9c-.5.7.5 1 1 1h.2c.7 0 2.6-.3 2.7-1.3.2-2 .2-4.2.2-6.3 1.6-1.7 3-3.6 4-5.6.8 1.5 1.6 3 2 4.6 1 2.7 2.4 5.2 3.2 8 .5 1.8 4.5.7 4-1-1-2.8-2.3-5.3-3.2-8zm23.6-4.6c-.2-.8-1.4-.8-2.3-.8v-1l-.4-8c-.2-2.5-1.6-3.3-4-3.3-2.4.1-5.2.6-7.5 1.4a7 7 0 00-4.5 5.7c-.6 3 .2 6.2.4 9.3v10.5c0 .6 4 0 4-1v-8.4l-.2-2.4c1.4-.6 3.7 0 5 .1 1.2.1 2.2-.1 3.3-.3l.2 7c0 1.2.5 3.5-.3 4.5-.5.5 1.5.3 1.5.3.8-.1 1.8-.4 2.3-1 1-1.2.5-3.8.4-5.2l-.1-5.7c1.1-.1 2.4-.8 2.2-1.7zM87 18.4l-.3-3.8c-.2-2.3 0-5.6 2.3-7 .5-.4 1.6-.3 2.3-.4 1-.2 2-.4 2.8.2 1.3.8 1 3.6 1 4.8l.3 6-1.7.1c-2.3 0-4.6-.4-6.7 0zM24.1 6.7c.5 0 1-.2 1.5-.5l.2-.2c.6-.4 1-.9.8-1.4-.5-1.1-.5-2.2-.4-3.4 0-1-1-1.3-1.8-1.2-.8 0-2.2.6-2.2 1.5l.1 3-.1.4.1.6v.4c.1.3.3.4.5.6.4.2.9.2 1.3.2z"/></svg>