<svg xmlns="http://www.w3.org/2000/svg" width="1150" height="23"><path fill="#f1f1f1" d="M1150 23c-9 0-13.7-4.6-17.5-8.3-3.4-3.3-5.9-5.7-11.2-5.7-5.4 0-7.9 2.4-11.3 5.7-3.8 3.7-8.5 8.3-17.5 8.3s-13.7-4.6-17.5-8.3c-3.4-3.3-5.9-5.7-11.2-5.7s-7.9 2.4-11.3 5.7c-3.8 3.7-8.5 8.3-17.5 8.3s-13.7-4.6-17.5-8.3c-3.4-3.3-5.9-5.7-11.2-5.7-5.4 0-7.9 2.4-11.3 5.7-3.8 3.7-8.5 8.3-17.5 8.3s-13.7-4.6-17.5-8.3c-3.4-3.3-5.9-5.7-11.2-5.7s-7.9 2.4-11.3 5.7C933.7 18.4 929 23 920 23s-13.7-4.6-17.5-8.3c-3.4-3.3-5.9-5.7-11.2-5.7s-7.9 2.4-11.3 5.7c-3.8 3.7-8.5 8.3-17.5 8.3s-13.7-4.6-17.5-8.3c-3.4-3.3-5.9-5.7-11.2-5.7-5.4 0-7.9 2.4-11.3 5.7-3.8 3.7-8.5 8.3-17.5 8.3s-13.7-4.6-17.5-8.3c-3.4-3.3-5.9-5.7-11.2-5.7-5.4 0-7.8 2.4-11.3 5.7-3.7 3.7-8.5 8.3-17.5 8.3s-13.7-4.6-17.5-8.3c-3.4-3.3-5.9-5.7-11.2-5.7s-7.8 2.4-11.3 5.7C703.8 18.4 699 23 690 23s-13.7-4.6-17.5-8.3c-3.4-3.3-5.9-5.7-11.2-5.7s-7.8 2.4-11.2 5.7c-3.8 3.7-8.5 8.3-17.6 8.3s-13.7-4.6-17.5-8.3c-3.4-3.3-5.9-5.7-11.2-5.7-5.4 0-7.8 2.4-11.2 5.7-3.8 3.7-8.5 8.3-17.6 8.3-9 0-13.7-4.6-17.5-8.3-3.4-3.3-5.9-5.7-11.2-5.7s-7.8 2.4-11.2 5.7c-3.8 3.7-8.5 8.3-17.6 8.3-9 0-13.7-4.6-17.5-8.3-3.4-3.3-5.8-5.7-11.2-5.7-5.4 0-7.8 2.4-11.2 5.7-3.8 3.7-8.5 8.3-17.6 8.3-9 0-13.7-4.6-17.5-8.3-3.4-3.3-5.8-5.7-11.2-5.7-5.4 0-7.8 2.4-11.2 5.7-3.8 3.7-8.5 8.3-17.6 8.3s-13.7-4.6-17.5-8.3c-3.4-3.3-5.8-5.7-11.2-5.7-5.4 0-7.8 2.4-11.2 5.7-3.8 3.7-8.5 8.3-17.6 8.3s-13.7-4.6-17.5-8.3c-3.4-3.3-5.9-5.7-11.2-5.7s-7.8 2.4-11.2 5.7c-3.8 3.7-8.5 8.3-17.6 8.3-9 0-13.7-4.6-17.5-8.3-3.4-3.3-5.9-5.7-11.2-5.7-5.4 0-7.8 2.4-11.2 5.7-3.8 3.7-8.5 8.3-17.6 8.3-9 0-13.7-4.6-17.5-8.3-3.4-3.3-5.9-5.7-11.2-5.7s-7.8 2.4-11.2 5.7c-3.8 3.7-8.5 8.3-17.6 8.3-9 0-13.7-4.6-17.5-8.3-3.4-3.3-5.9-5.7-11.2-5.7-5.4 0-7.8 2.4-11.3 5.7-3.7 3.7-8.5 8.3-17.5 8.3s-13.7-4.6-17.5-8.3C94.1 11.4 91.6 9 86.3 9s-7.9 2.4-11.3 5.7c-3.8 3.7-8.5 8.3-17.5 8.3S43.8 18.4 40 14.7C36.6 11.4 34.1 9 28.8 9s-7.9 2.4-11.3 5.7C13.7 18.4 9 23 0 23v-9c5.4 0 7.8-2.4 11.2-5.7C15 4.6 19.7 0 28.8 0s13.7 4.6 17.5 8.3c3.4 3.3 5.9 5.7 11.2 5.7 5.4 0 7.8-2.4 11.3-5.7C72.5 4.6 77.3 0 86.3 0s13.7 4.6 17.5 8.3c3.4 3.3 5.9 5.7 11.2 5.7s7.9-2.4 11.3-5.7C130 4.6 134.8 0 143.8 0s13.7 4.6 17.5 8.3c3.4 3.3 5.9 5.7 11.2 5.7 5.4 0 7.9-2.4 11.3-5.7 3.8-3.7 8.5-8.3 17.5-8.3s13.7 4.6 17.5 8.3c3.4 3.3 5.9 5.7 11.2 5.7 5.4 0 7.9-2.4 11.3-5.7C245 4.6 249.8 0 258.8 0s13.7 4.6 17.5 8.3c3.4 3.3 5.9 5.7 11.2 5.7 5.4 0 7.9-2.4 11.3-5.7 3.8-3.7 8.5-8.3 17.5-8.3s13.7 4.6 17.5 8.3c3.4 3.3 5.9 5.7 11.2 5.7 5.4 0 7.9-2.4 11.3-5.7C360 4.6 364.8 0 373.8 0s13.7 4.6 17.5 8.3c3.4 3.3 5.9 5.7 11.2 5.7s7.9-2.4 11.3-5.7c3.8-3.7 8.5-8.3 17.5-8.3s13.7 4.6 17.5 8.3c3.4 3.3 5.9 5.7 11.2 5.7 5.4 0 7.9-2.4 11.3-5.7C475 4.6 479.8 0 488.8 0s13.7 4.6 17.5 8.3c3.4 3.3 5.9 5.7 11.2 5.7 5.4 0 7.9-2.4 11.3-5.7 3.8-3.7 8.5-8.3 17.5-8.3s13.7 4.6 17.5 8.3c3.4 3.3 5.9 5.7 11.2 5.7 5.4 0 7.9-2.4 11.3-5.7C590 4.6 594.8 0 603.8 0s13.7 4.6 17.5 8.3c3.4 3.3 5.9 5.7 11.2 5.7 5.4 0 7.9-2.4 11.3-5.7 3.8-3.7 8.5-8.3 17.5-8.3s13.7 4.6 17.5 8.3c3.4 3.3 5.9 5.7 11.2 5.7 5.4 0 7.9-2.4 11.3-5.7C705 4.6 709.8 0 718.8 0s13.7 4.6 17.5 8.3c3.4 3.3 5.9 5.7 11.2 5.7 5.4 0 7.8-2.4 11.3-5.7 3.7-3.7 8.5-8.3 17.5-8.3s13.7 4.6 17.5 8.3c3.4 3.3 5.9 5.7 11.2 5.7 5.4 0 7.8-2.4 11.3-5.7C820 4.6 824.7 0 833.8 0c9 0 13.7 4.6 17.5 8.3 3.4 3.3 5.9 5.7 11.2 5.7s7.8-2.4 11.2-5.7c3.8-3.7 8.5-8.3 17.6-8.3 9 0 13.7 4.6 17.5 8.3 3.4 3.3 5.9 5.7 11.2 5.7s7.8-2.4 11.2-5.7C935 4.6 939.7 0 948.8 0s13.7 4.6 17.5 8.3c3.4 3.3 5.9 5.7 11.2 5.7s7.8-2.4 11.2-5.7c3.8-3.7 8.5-8.3 17.6-8.3s13.7 4.6 17.5 8.3c3.4 3.3 5.8 5.7 11.2 5.7 5.4 0 7.8-2.4 11.2-5.7 3.8-3.7 8.5-8.3 17.6-8.3s13.7 4.6 17.5 8.3c3.4 3.3 5.8 5.7 11.2 5.7s7.8-2.4 11.2-5.7c3.8-3.7 8.5-8.3 17.6-8.3s13.7 4.6 17.5 8.3c3.4 3.3 5.8 5.7 11.2 5.7v9z"/></svg>
