<svg xmlns="http://www.w3.org/2000/svg" width="21.8" height="21.3" viewBox="53.1 53.2 21.8 21.3"><path fill="#231F20" d="M74.9 65.3c0-2.4-.4-4.8-.3-7.1l-.2-2.3-.1-1c-.3-.2-.2-.7-.5-.9-.4-.2-1.2 0-1.7-.2l-2-.1-6-.1c-2 0-3.9-.2-5.6-.4h-2.2c-.1 0-.1.1-.2 0l-1.6.4-.7.3c-.2.2-.5.1-.6.4-.2.2.2.4 0 .6v.9c.1.1 0 .6 0 .8v1c0 1.3.2 2.4.1 3.7.5 2.8.4 6.6.1 9.4l.5 1.8c.2.5.3 1.1.6 1.5.5.2 1.3.2 2 .2.3.1.6.3 1 .3 3-.2 5.6-.1 8.5-.2 2.7.2 5.8.2 8.3-.2.2-.2.1-.6.2-.8 0-.4.2-.4.2-.7.2-2.4.2-4.8.2-7.3zm-13-6.2c.8-.1 1.5-.3 2.4-.3.7 0 1.3.3 2 .5 0 .1-.3.5 0 .6v.1l.2.1c.5 0 .8.2 1 .4.5 0 .6.5 1.2.3v.8c.3 1.2.4 2.8.3 4.3-.2.1-.3.4-.3.6-.4.4-.5.8-.9 1.1a1 1 0 01-.4.5c-.2.3-.2.5-.5.6-.3.1-.6 0-.8-.1-.5.2-1 .3-1.2.6-.9 0-1.7-.2-2.5-.3a2 2 0 00-.8-.3 2 2 0 00-.8-.5c-.1 0-.4 0-.5-.2-.2 0-.2-.2-.5-.2 0-.4-.4-.6-.5-1l-.4-1.3c0-1.4 0-2.7.3-3.8l1.2-1.7c.2 0 .3 0 .4-.3h.6c.3 0 .3-.3.5-.5zm-1.7-2.7v-1c0-.4.2-.4.3-.6h-.2c.1-.2.7-.2.8 0 .2.4-.3.4-.5.6 0 .2.3 0 .5 0v2.3h-.5c0 .2.2.2.5.2v.6c-.2.2-.7 0-1 0-.1-.5.2-1.3.1-2.1zm-.7-1.6h.2c.2.3 0 .7 0 1-.3-.2-.1-.7-.2-1zm.2 1.8l-.2-.4c.2 0 .2.2.2.4zm0 1.4v-.2.2zm-.2.2c.2 0 .1.2.3.2 0 .2-.3.2-.4.1l.1-.3zM57.2 57v-.2c-.2-.8 0-1.5 0-2 .2-.2.7 0 1 0v1l-.3.1c0 .3.3.2.4.3 0 .9-.1 1.8.1 2.5H57c0-.6 0-1.4.5-1.6l-.3-.1zm-.5 0c-.2 0-.3-.5-.1-.6.3 0 .2.5 0 .6zm-.2 1v-.7c.3 0 .3.8 0 .7zm.2-2c-.2 0-.2-.3-.1-.5.2 0 .3.3.1.4zm0-1.2v.3c-.2 0-.1-.2-.3-.2l.3-.1zm-.2 3.7c.2 0 .1.4 0 .2v-.2zm-.7-3.7c0 .2-.4.3-.4 0h.4zm-1 0c0 .3-.3.2-.3.4-.3-.1 0-.4.3-.3zm-.4.8l.7-.6v-.2h.3c0 .4-.3.3-.3.5l-.1.2v1c-.2 0-.2.3-.5.3 0-.5-.2-.7-.1-1.2zm0 3.3v-1.6l.7-.5c.3.4.1 1.3.4 1.9-.3.1-.7 0-1 .2zm18.3 11l-.4 2.9-8.9.1c-.2 0-.3 0-.2-.2-.3 0-.3.2-.5.2.2-.3.4-.9.1-1.3-.8 0-.8.9-1.1 1.3-.7 0-1.2.2-1.9.1.2-.7.8-1 1-1.7-.4-.6-1 .1-1.3.4l-.7 1.3h-1l.8-1.4c.1-.5.6-.7.6-1.3-.1-.3-.4 0-.6 0l-.4.5-.7 1.1c-.2.3-.3 0-.5.3-.4.2-.6.7-1 1-.2-.1 0-.4.1-.4l.1-.6c0-.4.2-.7.4-1 .1-.7.5-1.1.7-1.8-.6 0-.7.6-1 1-.2.4-.6.7-.7 1.2-.2 0 0-.5 0-.8 0-.6.2-1.1.3-1.7l.2-.9c.2-.2 0-.6 0-.7-.3 0-.4.1-.5.3-.2 0-.2.5-.3.3 0-2.6-.5-4.8-.5-7.5l-.2-.7 4.8.3-.3.4c-.2 0-.2.1-.4.3-.6 1.6-1 4-.6 6.1.2.6.6 1 1 1.5.9.4 1.6 1.1 2.5 1.6 1.7.4 3.8.4 5.5 0l.7-.4c1.4-1.2 2.8-2.4 3-4.8v-1.4C70.6 62 70 60.6 69 60c.4-.2 1.1 0 1.7 0H72.8c.2.2.1.6.3.8l-.2 5.1.2 1.4c0 1-.2 2-.4 2.8zm.4-11l-2-.5c.1-.3.9 0 1-.2.4-.2.3-1 .4-1.5v-1c-.4-1-1.8-.5-2.9-.5a6 6 0 00-.3 2.6c.2.5 1 .3 1.6.5-.2.3-.7 0-1 0h-7.5l-.1-3.6h3c-.3.4-.8.5-1.2.9-.4.2-.9.5-1.1.9.2.1.5-.3.7-.4.4 0 .5-.4.9-.5.4-.4 1-.6 1.6-.9h1l3.8.2c.6.1 1.5 0 2 .3l.3.9-.2 2.7zM67.2 55c.1 0 0-.1 0 0zm0 0c-.5.1-1 .3-1.4.7.5-.2 1.1-.3 1.4-.7zm1 .6c.2 0 0-.1 0 0zm-1.7 1c.8-.3 1.2-.7 1.8-1-.5 0-.6.3-1 .4-.2.2-.6.2-.8.5zm-.7-1c0 .1 0 .2 0 0zm-.6.7s0-.1 0 0zm-.1 0zm0 .1zm-1 .6c.4-.1.7-.3 1-.6a2 2 0 00-1 .6zm2.4 1c.5 0 .7-.4 1.2-.5.3-.3.8-.4 1-.8-.6 0-.8.4-1.3.6-.2.3-.7.4-1 .7zm-2.3-1c-.3 0 0 .3 0 0zm-.6.4h.1s-.1 0 0 0zm2.9.6c-.2 0 0 .1 0 0zM65.3 60c-.2-.2-.7-.2-1-.3-.7 0-1.2 0-1.7.2l-1 .5-.7.5c-.2.2-.3.5-.7.6 0 .2-.1.3-.3.4 0 0 0 .3-.2.3v.4c0 1.5.2 2.9.6 4.1.3.7 1 .9 1.4 1.3.6.3 1.4.5 2.2.5h.9a5 5 0 002.8-1.5l.4-.7c-.2-.6.3-1 .5-1.5 0-1.4-.2-2.5-.6-3.5-.3-.5-1-.7-1.4-1l-.1-.2c-.3-.1-.8-.2-1 0zM62 64.3l-.2-.4c.3 0 .2.2.2.4zm0 .3c.1-.1.2 0 .2 0 0 .2-.1 0-.1 0zm.5-2c0-.2.1-.1.1 0zm1.7-2.2c-.2.3 0 .6 0 .8-.2 0-.5-.8 0-.8zm.4 4v-.1c.1 0 0 0 0 0zm.7 2.8h.2c0 .1-.2.1-.2 0zm2.2-2.5c-.2-.1-.1.2-.3.1 0-.2 0-.3.2-.4.1 0 .2 0 .1.3zm-1.1-3.8l.6.3c0 .3.3.4.4.6 0 .7.2 1.5.1 2.3l-.6.4c-.8 0-1.4-.2-2-.5l-.5-.7v-1l.5-.7c.2-.1.5-.2.4-.6v-.2l.3.2c.4 0 .5-.2.8-.1z"/></svg>