<svg xmlns="http://www.w3.org/2000/svg" width="85.6" height="35" viewBox="32.5 20.2 85.6 35"><path d="M36.6 46.5c0-3.5-.2-7-.3-10.4v-1l.1.4 1.8 3.9c.8 1.2 1.1 2.6 1.6 4-.2 0-.3.3-.2.5 0 .2 0 .3.2.3.5.5 1.5.2 2.1 0l.7-.4c.3-.1.7-.5.6-1v-.2l.7-3.3 1.1-3.5.2 1.6c.1 2.2 0 4.3 0 6.4 0 .7 0 1.4.2 2.1 0 .3.3 1.5.2 1.6-.5.5-.4 1 .3 1.2.8.2 1.8-.1 2.4-.6 1-1 .5-2.4.3-3.6-.4-2 0-4.2 0-6.2 0-2.3-.5-4.5-.4-6.8 0-1.8.3-3.7-.3-5.4v-.6c.3-1-2.7-.4-3.1.4-.3.2-.5.5-.3.8v.2c-.5 2.7-1.3 5.3-2.2 8l-1 2.9-1.4-2.9c-1.2-2.8-2.2-5.8-3.6-8.6.1-1.2-2.7-1.1-3.3 0a7.3 7.3 0 00-.4 4.5c.3 1.7.3 3.4.3 5.1 0 3.4.3 6.7.4 10-.3.4-.4.8 0 1.2 0 .2.2.3.4.5.8.6 3 0 3-1zM54.8 28.1c0-.6-3.4.1-3.3 1 .3 1.7.2 3.5.2 5.3 0 1.7.4 3.3.6 5 .2 1.7 0 3.5.1 5.2.1.8.6 2.3 0 3-.3.5 1.3.3 1.4.3.6-.1 1.5-.3 2-.9.5-.7.1-2 0-2.8-.3-1.7-.1-3.6-.2-5.3 0-1.7-.6-3.3-.6-5 0-1.9.1-3.8-.2-5.8zM58 34.8c.9 2.5 4.6 1.3 6.5 1.5 3.2.2 2.3 4.6 2.3 6.6 0 1 1 2.9.2 3.8-.5.6-1.7.6-2.4.6-.6.1-1.8.3-2.3-.3-.8-1.2.1-3.2 0-4.6-.2-.8-3.5 0-3.4.9.3 2.2-1.1 5.1 2 5.5 2.1.3 4.4-.1 6.4-.8 1-.3 2-.7 2.7-1.5.9-.8.6-2 .4-3-.6-2.4.6-5.2-1-7.4-1.8-2.3-5-.7-7.2-1.3-1.2-.3-1.2-2-1.2-2.9l-.2-3.5c-.1-.8 0-1.7.6-2.4l.7-.3h.9c1.3-.1 3.9.1 3.4 2-.3.9 3 .4 3.2-.5 1-3.9-6.1-3.1-8.1-2.6-1.9.5-4 1.6-4 3.7-.1 1 .2 2 .2 3 0 1.2-.2 2.4.3 3.5zM72.4 36.7l-.2 5.4.3 2.7c0 .8.4 2 .1 2.8-.2.6 3 .2 3.3-.6.4-1.5-.2-3.4-.4-5-.1-1.4 0-2.9.1-4.3 1.7-.1 3.4-.3 5.1 0a126 126 0 00.5 6.4c0 .8 0 2-.2 2.9-.7 1.7 2.6 1.6 3.1.3.6-1.6.4-3.6.3-5.2 0-2-.4-4.1-.4-6.2-.1-3.2-.6-6.3-.6-9.5 0-1.6-3.4-1-3.4.3 0 3 .5 6 .6 9v.3l-5 .2c.3-4-.4-7.8-.3-11.7 0-.5-3.2 0-3.3.9-.1 3.8.5 7.5.4 11.3zM86.5 42a50.7 50.7 0 01-.1 5c-.4.6.3 1 .9 1 .7 0 2.3-.4 2.3-1.2.2-1.8.3-3.6.2-5.3 1.4-1.5 2.5-3 3.5-4.8a25 25 0 011.6 3.9c.8 2.3 2 4.4 2.7 6.7.4 1.6 3.7.7 3.3-.8-.7-2.4-1.9-4.5-2.7-6.8-.8-2.3-2-4.4-3-6.6l2.5-5c.6-1.4 1.2-3.1 2.5-4.2.5-.4.5-.8-.2-.8s-1.7.1-2.3.6a9 9 0 00-2.7 3.6l-2.5 5.1-.1.4a60.5 60.5 0 01-2.6 5c-.3-4.7-.9-9.4-1-14 0-1.1-3.4-.4-3.4.8.3 5.8 1 11.6 1.1 17.4zM118 35.8c-.1-.7-1.1-.7-1.9-.6v-.9l-.3-6.8c-.2-2-1.4-2.8-3.4-2.7-2 0-4.4.4-6.3 1.2a5.9 5.9 0 00-3.8 4.8c-.5 2.5.2 5.2.3 7.8v8.8c0 .5 3.3 0 3.3-.9v-7-2c1.1-.5 3 0 4.2 0 1 .2 1.8 0 2.7-.2l.2 5.9c0 1 .4 3-.3 3.8-.4.4 1.3.3 1.3.3.7-.2 1.5-.4 2-.9.8-1 .3-3.2.3-4.3l-.1-4.9c1 0 2-.7 1.8-1.4zm-6.6-.2c-2 0-3.9-.3-5.7 0l-.2-3c-.2-2 0-4.8 1.9-6 .5-.3 1.4-.2 2-.3.8-.2 1.6-.4 2.4.1 1 .7.7 3.1.7 4.1 0 1.7.2 3.4.3 5l-1.4.1zM51.2 24.3V25.2l.5.5c.3.2.7.2 1 .2.5 0 1-.2 1.3-.5l.2-.2c.5-.2.8-.7.6-1.1-.4-1-.3-1.9-.3-2.9 0-.8-.8-1-1.5-1-.6 0-1.8.5-1.8 1.3v2.8zM112.7 53.5c-1.5-.6-3.2-.6-4.8-.8l-4.9-.5h-5l-4.9.4c-6.4.2-13 .2-19.5 0-6.5 0-13-.4-19.6-.4l-9.9.3-4.9.9c-1.6.4-3.1.9-4.8 1 1.7.4 3.4.3 5 .3l4.9.2 9.7-.2c6.5 0 13 .3 19.6.4 6.5.2 13 .2 19.7 0l4.9-.3c1.6-.1 3.2-.2 4.8-.1l5-.5c1.6-.3 3.1-.7 4.8-.5V53v.4z"/></svg>