<svg xmlns="http://www.w3.org/2000/svg" width="112.4" height="46.1" viewBox="19.1 15 112.4 46.1"><path d="M129.4 56.9c4.4.9.8-35.9.1-38.3-2-6.6-26.7-2.2-32.2-1.7-12.7 1-25.2-1-37.6-.4-6.2.3-34.8-1.8-37.5 2-5 7.2-2.7 25.8-1.3 35-4 .8 2.3 4.2 3.2 5 6.3 2.1 16.3-.3 23 .3 15.4 1.5 31.8-2.2 47.2-1 4.5 1.2 9.6 1.1 14.3 1.3 3.4 5.6 19.6-2.4 20.8-2.2-.1 0 .5 0 0 0z"/><path d="M45.2 39.4c0-2.5-.5-5-.5-7.6 0-2 .4-4.2-.3-6.2l.1-.7c.2-1-3-.4-3.6.5-.3.3-.5.6-.3.9v.2c-.6 3-1.4 6-2.4 9l-1.3 3.3-1.5-3.2c-1.3-3.2-2.5-6.5-4-9.7 0-1.4-3.1-1.3-3.8 0a8.2 8.2 0 00-.4 5c.3 2 .4 3.9.4 5.8 0 3.8.3 7.6.4 11.3-.4.4-.5.9-.1 1.3l.5.6c.9.6 3.4 0 3.3-1.3 0-3.9-.2-7.8-.4-11.7v-1.1l.2.4c.6 1.5 1.2 3 2 4.4.9 1.4 1.3 3 1.8 4.4-.2.2-.3.5-.2.7 0 .2 0 .3.2.4.6.5 1.7.2 2.4 0l.8-.5c.3-.2.8-.6.6-1v-.3c.4-1.2.6-2.5.9-3.7.2-1.4.7-2.7 1.2-4l.2 1.8c.2 2.4 0 4.8 0 7.2 0 .8 0 1.6.2 2.4 0 .3.3 1.7.2 1.8-.5.5-.4 1.1.4 1.3.9.2 2 0 2.6-.7 1.2-1 .6-2.7.4-4-.5-2.2 0-4.7 0-7zm7.9.6c0-1.8-.7-3.6-.7-5.5 0-2.2.2-4.4-.1-6.6-.1-.6-3.9.1-3.8 1 .3 2 .2 4 .2 6s.4 3.8.7 5.7c.2 2-.1 4 .1 5.9.1.9.7 2.6.1 3.4-.4.5 1.4.3 1.5.3.7-.2 1.7-.4 2.2-1 .6-.8.2-2.3 0-3.2-.3-2 0-4-.2-6zm15.5-3.1c-2-2.6-5.6-.7-8.1-1.5-1.3-.3-1.3-2.1-1.3-3.2l-.3-4c0-1 0-2 .7-2.7l.8-.3h1c1.5-.1 4.4.1 3.8 2.3-.2 1 3.4.4 3.7-.6 1.2-4.4-7-3.6-9.2-3-2 .6-4.4 1.8-4.5 4.2 0 1.2.2 2.3.3 3.4 0 1.3-.2 2.7.3 4 1 2.8 5.2 1.4 7.3 1.6 3.7.3 2.6 5.2 2.7 7.5 0 1.2 1 3.2.2 4.2-.6.7-2 .7-2.7.8-.8 0-2 .3-2.6-.5-1-1.3 0-3.6-.1-5.1-.1-.9-3.9-.1-3.7 1 .3 2.5-1.4 5.8 2.3 6.2 2.3.3 4.9-.1 7-.8 1.2-.4 2.3-1 3.1-1.7 1-1 .7-2.3.4-3.4-.6-2.8.7-6-1-8.4zm16.4-.2c0-3.6-.6-7.1-.6-10.7 0-1.9-3.8-1.2-3.8.3 0 3.5.5 6.8.7 10.2v.3l-5.5.2c.1-4.4-.6-8.8-.5-13.2 0-.5-3.6 0-3.7 1-.1 4.3.6 8.5.5 12.7-.1 2-.3 4-.3 6.1l.3 3.1c.2 1 .5 2.2.2 3.2-.2.7 3.4.2 3.7-.7.5-1.7-.3-3.8-.4-5.5-.2-1.7 0-3.4 0-5 2-.1 3.9-.3 5.8 0a149 149 0 00.5 7.2c0 1 .1 2.4-.2 3.3-.7 2 3 1.8 3.5.3.7-1.8.5-4 .4-5.8-.1-2.3-.5-4.7-.5-7zm16.1 4.3c-.9-2.6-2.2-5-3.4-7.4 1-1.9 2-3.7 2.8-5.6.8-1.7 1.4-3.6 3-4.8.5-.5.4-.9-.3-1-.9 0-2 .2-2.7.8a10.2 10.2 0 00-3 4l-2.8 5.8-.2.4a67.2 67.2 0 01-3 5.6c-.2-5.3-.9-10.5-1-15.8 0-1.2-3.8-.4-3.8 1C87 30.5 88 37 88 43.5c-.4.4-.3.6 0 .7 0 1.6 0 3.3-.2 5-.5.7.4 1 1 1 .8 0 2.6-.3 2.7-1.3.2-2 .2-4 .2-6 1.5-1.6 2.7-3.4 3.8-5.3a28 28 0 012 4.4c.7 2.6 2.1 5 2.9 7.6.5 1.7 4.2.7 3.7-1-.8-2.6-2-5-3-7.6zm22.3-4.4c-.2-.8-1.3-.8-2.1-.8v-1l-.4-7.5c-.2-2.4-1.5-3.2-3.8-3.1-2.3 0-5 .5-7 1.3a6.6 6.6 0 00-4.4 5.4c-.5 2.9.2 6 .3 8.8.2 3.3.1 6.6.1 10 0 .5 3.7 0 3.7-1V38.4c1.2-.5 3.4 0 4.7.2l3-.3.3 6.6c0 1.1.4 3.3-.4 4.3-.4.5 1.5.3 1.5.3.8-.1 1.7-.4 2.2-1 1-1 .4-3.6.4-4.9l-.1-5.4c1-.1 2.2-.8 2-1.6zm-13.8-.2l-.3-3.5c-.2-2.2 0-5.3 2.2-6.7.5-.3 1.5-.3 2.2-.4 1-.1 1.8-.3 2.7.2 1.1.8.8 3.5.8 4.6 0 2 .2 3.8.3 5.7-.5 0-1 .1-1.6 0-2.1 0-4.3-.3-6.3.1zM50 25.4c.4 0 1-.2 1.3-.5l.3-.2c.5-.3.9-.8.7-1.3-.5-1-.5-2.1-.4-3.3 0-.9-1-1.1-1.7-1-.7 0-2 .5-2.1 1.4l.1 2.8v1.3c.1.3.3.4.5.6.3.2.8.2 1.2.2z" fill="#FFF"/></svg>