<svg xmlns="http://www.w3.org/2000/svg" width="148.1" height="72.7"><path d="M143.2 31.4c-1.5 1-3 2-4.7 2.8 0-1.8-.1-3.5-.6-5.2l.2-1c.3-3 .6-7-2-9.2-.4-.2-1.3 0-2 .3l-.5-.4-.2-.8-.3-.2c.2-.4.2-.8-.5-1a18.6 18.6 0 00-1.3-.5 22 22 0 00-2.8-.7c0-.4.3-.8.5-1l.4-.5.2-.1v-.1h.2c.4-.3.8-1 .2-1.3-.6-.3-1.5-.1-2 .3-.9.6-1.6 1.4-2.1 2.3a50 50 0 00-6-.3c.2-.6-.8-.5-1.1-.5l-4.7.6c1.3-3.7 3-8.6 1-12.2C113.9.6 111 0 109 0c-2.5 0-5 .5-7 1.6-4.8 2.7-7.2 7.8-8.3 13.2-.5-.7-2.3-.4-2.6.4l-.3 1-.4.7v.1h-.2v-.3a73.9 73.9 0 012.2-7.2c.3-.7-2.4-.4-2.7.5-.5 1.2-.8 2.4-1.1 3.6-.2 0-.4.2-.5.3v.1a.9.9 0 00-.5-.2v-1c0-.4-2.8 0-2.8.8v1.6c-.2 0-.3.2-.5.3l-.2.1v.3H84v.1c-.2.2-.2.4 0 .5.1.2.4.2.6.2h.2v.4h-1.1c0-.4-.7-.5-1.3-.4v-.1l-.3-1.8c.3 0 .5-.2.7-.3.2-.1.3-.2.3-.5V14c0-.2-.4-.3-.5-.3H82V9.9c0-.9-2.9-.4-2.9.7 0 1.8 0 3.6.2 5.4h-.2v-1.6c0-1-1.3-1.2-2.2-.8.3-.2.5-.6.4-1-.4-1.4-.8-2.8-1-4.3-.2-1.4-3-.7-2.8.8.2 1.4.6 2.8 1 4.2.2.9 1.3 1 2 .6a1 1 0 00-.3.7v.6l-.8-.1c-1 0-1.6.9-1.4 1.5l-.5-.1c-.3-1.3-.7-2.5-.7-3.9 0-.9-1.2-1-2-.6l-.1-.2c-.4-.8-.6-1.7-.8-2.5-.3-1.4-3.2-.6-2.8.7l.5 2c-.4 0-.7.1-1 .3-.8.1-1.8.6-1.7 1.2l.2 1.5-1.6.2a12 12 0 01-.6-2.4c-.2-1-1.6-.9-2.4-.3-.7-2-1.8-4-3-5.7a11.2 11.2 0 00-11.3-3.8 9 9 0 00-5 2.6C39.8 7 39.7 8.6 40 10.3c.1 1.5.6 4 1.5 6l-.9.1-.8.4H34c-4.2-.2-8.3-1-12.5-.8-1 0-1.6.7-1.5 1.3-1 .5-1.7 1.3-2.1 2.3a54 54 0 00-5.4-3.3c-.7-.3-3.3.8-2.3 1.3 1.9 1 3.6 2 5.3 3.2.5.3 1.3.1 1.9 0l.1-.2c-.3 1.5-.1 3.1.3 4.5l.1.3v1.2c-.4.2-.7.5-.7.8-.2 1.4-.3 2.8-.3 4.3a1 1 0 00-.5.8c-.3 3.3 0 6.6.4 9.9.2 2.7.7 5.3 1.2 8l.2 1.2a9.7 9.7 0 00-.3 3.5c-.8.2-1.7.9-1.2 1.6.8 1.2 1.7 2 2.6 2.7-.6-.1-1.4.1-1.9.6L15 62.3c-.4.4-.3 1 .3 1 .7.2 1.5 0 2-.5l2.5-2.3c.3-.3.3-.5.2-.7 3.2 1.7 7.3 1.2 11.1 1-.8 1.5-1.5 3.2-2.1 4.9-.3.7 2.5.4 2.8-.4.6-1.7 1.2-3.4 2-5 3.8.2 7.6.2 11.3.1.1.2.4.3.7.4 3.3.3 6.5-.1 9.7-.7l14.4-.8c7.5-.2 15-.4 22.6-.4l.3.3c.3.3.6.4 1 .4h.2a69.7 69.7 0 012.7.2l2.3.2.8.4 11.4.7c.2.2.6.3.9.3 7 0 15.2 2.8 21.5-1.7.5-.4.3-1-.2-1a2 2 0 00-.4 0c1.2-2.9 2.2-5.7 3-8.6.4-.2.6-.5.6-1a34.6 34.6 0 01.9-6.2c.3-2.2.8-4.4 1-6.5a50 50 0 006.6-3.9c1.6-1-.8-1.8-1.8-1.1zm-55.4-15h-.1a50.8 50.8 0 01.3-.9l-.2.9z"/><path d="M63.3 12.6c0 .2.5.2.7.2.4 0 .8 0 1.1-.2.4-.1 1.1-.5.8-1l-1-1.8c-.1-.2-.5-.2-.7-.2a3 3 0 00-1.1.2c-.4.2-1.1.6-.8 1 .3.6.6 1.3 1 1.8zM20.7 11c.2.6 1 .6 1.6.4.5-.1 1.4-.6 1.2-1.2-.2-.7-.4-1.3-.9-1.8s-1.3-.4-1.9-.2c-.4.2-1.2.9-.7 1.4.4.4.5.7.7 1.3zM30.7 13.9c.8 0 3-1.3 1.1-1.3-.8 0-3 1.3-1.1 1.3zM122.6 12.3h1c.3-.2.7-.3 1-.6a5 5 0 001-1.1V10l-.8-.3-1.2.2c-.2.1-.6.3-.7.6a3 3 0 01-.4.5l-.2.3c-.2.1-.4.3-.3.6 0 .2.3.3.6.4zM135.9 17.7c.6 0 1.4-.3 1.9-.7 1.3-1 2.6-2.2 3.6-3.6.3-.4-1-.3-1.1-.2-.6 0-1.4.2-1.7.7-1 1.3-2.2 2.4-3.4 3.4-.5.4.4.4.7.4zM146.7 44.8H142c-.6 0-1.5.4-1.6 1.1 0 .7.8 1 1.3 1h4.9c.6 0 1.5-.5 1.5-1.2.1-.7-.7-1-1.3-1zM57 60.8c-.5 0-1.4.3-1.6.8-.6 1.3-1 2.6-1.4 4-.2.6 2.6.2 2.8-.5.4-1.4.8-2.7 1.4-4 .2-.5-1-.3-1.2-.3zM61.6 63.4l-1 .1-1 .4c-.1 0-.3.2-.3.4v.3a.8.8 0 01-.2.3v.3h.8c.3 0 .7 0 1-.2.3-.1.7-.2.9-.4l.2-.5v-.6l-.4-.1zM116.7 67c-.4-.6-3 .4-2.9.8.9 1.6 2 3.1 3 4.7.4.7 3-.4 2.8-.8-1-1.5-2.1-3-3-4.6zM120.7 64.7c-.3-.6-1-.6-1.6-.4-.3 0-1.5.6-1.2 1.2l1.2 2.3c.3.6 1 .6 1.6.4.4 0 1.5-.6 1.2-1.1l-1.2-2.4zM5.7 43.1l-4.5 1c-.5.1-1.4.6-1.2 1.3.2.7 1.2.7 1.7.6l4.5-1c.5-.1 1.3-.7 1.1-1.3-.2-.7-1-.7-1.6-.6z"/><g><g fill="#FFF"><path d="M43.8 40.1c-.1-2.7-.6-5.4-.5-8.1 0-2.2.4-4.5-.4-6.6l.2-.7c.1-1-3.3-.5-3.9.5-.3.3-.5.6-.4 1l.1.2a79 79 0 01-2.6 9.5c-.4 1.2-1 2.4-1.3 3.6L33.3 36c-1.4-3.5-2.6-7-4.3-10.3.2-1.6-3.2-1.4-4 0a8.7 8.7 0 00-.4 5.3c.3 2 .4 4 .4 6.1 0 4 .4 8 .4 12-.3.5-.4 1 0 1.5l.5.5c1 .7 3.6.1 3.6-1.3 0-4.1-.4-8.3-.5-12.4v-1.3l.2.5c.6 1.6 1.3 3.2 2.2 4.7.9 1.5 1.3 3 1.8 4.7-.2.2-.3.5-.2.7 0 .2 0 .3.2.4.7.5 1.9.2 2.6 0l.8-.5c.3-.2.9-.7.7-1.1v-.3l1-4a25 25 0 011.2-4.2l.2 2c.2 2.5 0 5 0 7.6 0 .9 0 1.7.2 2.5 0 .3.4 1.8.3 1.9-.6.6-.5 1.3.4 1.4.9.3 2 0 2.8-.7 1.2-1.1.6-2.9.3-4.3-.4-2.3.1-5 0-7.4zM52.2 40.8c0-2-.8-4-.8-6 0-2.3.2-4.6-.1-6.9-.2-.7-4.1.1-4 1 .3 2.2.2 4.3.2 6.5 0 2 .4 4 .7 6 .3 2 0 4.1.1 6.2.2 1 .8 2.8.1 3.6-.4.6 1.5.4 1.6.4.8-.2 1.8-.4 2.3-1 .7-1 .2-2.5 0-3.5-.2-2 0-4.2-.1-6.3zM68.7 37.4c-2.1-2.8-6-.7-8.7-1.5-1.4-.4-1.4-2.3-1.4-3.4 0-1.5 0-2.8-.2-4.2-.2-1 0-2.2.7-3l.8-.3H61c1.6-.2 4.7.1 4 2.4-.2 1 3.7.4 4-.6 1.2-4.7-7.4-3.8-9.8-3.1-2.2.6-4.7 1.8-4.8 4.4l.3 3.6c0 1.4-.2 2.8.3 4.2 1 3 5.6 1.6 7.8 1.7 4 .3 2.8 5.6 2.8 8 0 1.3 1.2 3.5.2 4.5-.6.7-2 .7-2.8.8-.8 0-2.2.3-2.8-.4-1-1.5.1-3.9 0-5.5-.2-1-4.2-.1-4 1 .3 2.7-1.4 6.2 2.4 6.7 2.5.3 5.2-.2 7.6-1a9 9 0 003.2-1.8c1-1 .7-2.3.5-3.5-.7-3 .7-6.4-1.2-9zM86.2 37.2c-.2-3.8-.7-7.5-.8-11.4 0-2-4-1.3-4 .4 0 3.6.6 7.2.7 10.9v.2l-5.9.2c.2-4.6-.6-9.3-.4-14 0-.5-3.9 0-4 1.1-.1 4.5.6 9 .5 13.5l-.2 6.5.3 3.3c.1 1 .5 2.3.2 3.3-.3.8 3.6.3 3.9-.7.5-1.8-.3-4-.4-5.9-.2-1.7 0-3.5 0-5.3 2-.1 4.1-.3 6.2 0a159 159 0 00.5 7.7c0 1 .1 2.5-.2 3.5-.8 2 3.2 1.9 3.7.4.7-2 .5-4.3.4-6.3-.1-2.4-.5-4.9-.5-7.4zM103.2 41.8c-1-2.8-2.4-5.3-3.6-8l3-5.8c.8-1.9 1.4-3.9 3-5.2.6-.4.6-.9-.2-1-.9 0-2 .2-2.8.8a10.8 10.8 0 00-3.2 4.3l-3 6.1-.2.5c-.5.3-.8.8-.6 1.3a72 72 0 01-2.6 4.6c-.3-5.6-1-11.1-1.1-16.7 0-1.3-4-.5-4 1 .3 7 1.3 13.9 1.3 20.8-.3.4-.2.5 0 .7 0 1.7 0 3.5-.2 5.3-.5.7.5 1.1 1.1 1.1h.1c.8 0 2.7-.3 2.8-1.4.2-2 .2-4.2.2-6.3 1.6-1.7 3-3.7 4-5.7.9 1.5 1.6 3 2 4.6 1 2.8 2.4 5.3 3.3 8.1.5 1.8 4.4.8 3.9-1-.8-2.8-2.2-5.4-3.2-8.1zM127 37c-.3-.8-1.4-.8-2.3-.7v-1c-.2-2.7-.2-5.4-.5-8.1-.2-2.5-1.6-3.4-4-3.3-2.4.1-5.2.5-7.5 1.4a7 7 0 00-4.6 5.8c-.6 3 .2 6.2.4 9.3V51c0 .6 4 0 4-1v-8.5l-.1-2.4c1.3-.6 3.7 0 5 .1 1.2.1 2.2-.1 3.3-.3l.2 7c0 1.2.5 3.6-.3 4.6-.5.5 1.5.3 1.6.3.8-.1 1.7-.4 2.3-1 1-1.2.4-3.9.4-5.2l-.2-5.8c1.2-.1 2.5-.9 2.3-1.7zm-14.8 0l-.3-3.8c-.2-2.4.1-5.7 2.3-7.1.6-.4 1.7-.3 2.4-.4 1-.2 2-.4 2.8.1 1.3.9 1 3.7 1 5l.3 6H119c-2.3 0-4.6-.3-6.8.1zM48.8 25.2c.5 0 1-.3 1.5-.6l.2-.2c.5-.3 1-.8.8-1.3-.6-1.2-.5-2.3-.5-3.5 0-1-1-1.2-1.8-1.2-.7 0-2.1.6-2.2 1.6 0 1 0 2 .2 3l-.2.3c0 .3 0 .5.2.6v.5c0 .2.2.4.4.5.4.3 1 .3 1.4.3z"/></g></g></svg>