<svg xmlns="http://www.w3.org/2000/svg">
  <symbol id="logo-mobile" viewBox="32.5 20.2 85.6 35">
    <path d="M36.6 46.5c0-3.5-.2-7-.3-10.4v-1l.1.4 1.8 3.9c.8 1.2 1.1 2.6 1.6 4-.2 0-.3.3-.2.5 0 .2 0 .3.2.3.5.5 1.5.2 2.1 0l.7-.4c.3-.1.7-.5.6-1v-.2l.7-3.3 1.1-3.5.2 1.6c.1 2.2 0 4.3 0 6.4 0 .7 0 1.4.2 2.1 0 .3.3 1.5.2 1.6-.5.5-.4 1 .3 1.2.8.2 1.8-.1 2.4-.6 1-1 .5-2.4.3-3.6-.4-2 0-4.2 0-6.2 0-2.3-.5-4.5-.4-6.8 0-1.8.3-3.7-.3-5.4v-.6c.3-1-2.7-.4-3.1.4-.3.2-.5.5-.3.8v.2c-.5 2.7-1.3 5.3-2.2 8l-1 2.9-1.4-2.9c-1.2-2.8-2.2-5.8-3.6-8.6.1-1.2-2.7-1.1-3.3 0a7.3 7.3 0 00-.4 4.5c.3 1.7.3 3.4.3 5.1 0 3.4.3 6.7.4 10-.3.4-.4.8 0 1.2 0 .2.2.3.4.5.8.6 3 0 3-1zM54.8 28.1c0-.6-3.4.1-3.3 1 .3 1.7.2 3.5.2 5.3 0 1.7.4 3.3.6 5 .2 1.7 0 3.5.1 5.2.1.8.6 2.3 0 3-.3.5 1.3.3 1.4.3.6-.1 1.5-.3 2-.9.5-.7.1-2 0-2.8-.3-1.7-.1-3.6-.2-5.3 0-1.7-.6-3.3-.6-5 0-1.9.1-3.8-.2-5.8zM58 34.8c.9 2.5 4.6 1.3 6.5 1.5 3.2.2 2.3 4.6 2.3 6.6 0 1 1 2.9.2 3.8-.5.6-1.7.6-2.4.6-.6.1-1.8.3-2.3-.3-.8-1.2.1-3.2 0-4.6-.2-.8-3.5 0-3.4.9.3 2.2-1.1 5.1 2 5.5 2.1.3 4.4-.1 6.4-.8 1-.3 2-.7 2.7-1.5.9-.8.6-2 .4-3-.6-2.4.6-5.2-1-7.4-1.8-2.3-5-.7-7.2-1.3-1.2-.3-1.2-2-1.2-2.9l-.2-3.5c-.1-.8 0-1.7.6-2.4l.7-.3h.9c1.3-.1 3.9.1 3.4 2-.3.9 3 .4 3.2-.5 1-3.9-6.1-3.1-8.1-2.6-1.9.5-4 1.6-4 3.7-.1 1 .2 2 .2 3 0 1.2-.2 2.4.3 3.5zM72.4 36.7l-.2 5.4.3 2.7c0 .8.4 2 .1 2.8-.2.6 3 .2 3.3-.6.4-1.5-.2-3.4-.4-5-.1-1.4 0-2.9.1-4.3 1.7-.1 3.4-.3 5.1 0a126 126 0 00.5 6.4c0 .8 0 2-.2 2.9-.7 1.7 2.6 1.6 3.1.3.6-1.6.4-3.6.3-5.2 0-2-.4-4.1-.4-6.2-.1-3.2-.6-6.3-.6-9.5 0-1.6-3.4-1-3.4.3 0 3 .5 6 .6 9v.3l-5 .2c.3-4-.4-7.8-.3-11.7 0-.5-3.2 0-3.3.9-.1 3.8.5 7.5.4 11.3zM86.5 42a50.7 50.7 0 01-.1 5c-.4.6.3 1 .9 1 .7 0 2.3-.4 2.3-1.2.2-1.8.3-3.6.2-5.3 1.4-1.5 2.5-3 3.5-4.8a25 25 0 011.6 3.9c.8 2.3 2 4.4 2.7 6.7.4 1.6 3.7.7 3.3-.8-.7-2.4-1.9-4.5-2.7-6.8-.8-2.3-2-4.4-3-6.6l2.5-5c.6-1.4 1.2-3.1 2.5-4.2.5-.4.5-.8-.2-.8s-1.7.1-2.3.6a9 9 0 00-2.7 3.6l-2.5 5.1-.1.4a60.5 60.5 0 01-2.6 5c-.3-4.7-.9-9.4-1-14 0-1.1-3.4-.4-3.4.8.3 5.8 1 11.6 1.1 17.4zM118 35.8c-.1-.7-1.1-.7-1.9-.6v-.9l-.3-6.8c-.2-2-1.4-2.8-3.4-2.7-2 0-4.4.4-6.3 1.2a5.9 5.9 0 00-3.8 4.8c-.5 2.5.2 5.2.3 7.8v8.8c0 .5 3.3 0 3.3-.9v-7-2c1.1-.5 3 0 4.2 0 1 .2 1.8 0 2.7-.2l.2 5.9c0 1 .4 3-.3 3.8-.4.4 1.3.3 1.3.3.7-.2 1.5-.4 2-.9.8-1 .3-3.2.3-4.3l-.1-4.9c1 0 2-.7 1.8-1.4zm-6.6-.2c-2 0-3.9-.3-5.7 0l-.2-3c-.2-2 0-4.8 1.9-6 .5-.3 1.4-.2 2-.3.8-.2 1.6-.4 2.4.1 1 .7.7 3.1.7 4.1 0 1.7.2 3.4.3 5l-1.4.1zM51.2 24.3V25.2l.5.5c.3.2.7.2 1 .2.5 0 1-.2 1.3-.5l.2-.2c.5-.2.8-.7.6-1.1-.4-1-.3-1.9-.3-2.9 0-.8-.8-1-1.5-1-.6 0-1.8.5-1.8 1.3v2.8zM112.7 53.5c-1.5-.6-3.2-.6-4.8-.8l-4.9-.5h-5l-4.9.4c-6.4.2-13 .2-19.5 0-6.5 0-13-.4-19.6-.4l-9.9.3-4.9.9c-1.6.4-3.1.9-4.8 1 1.7.4 3.4.3 5 .3l4.9.2 9.7-.2c6.5 0 13 .3 19.6.4 6.5.2 13 .2 19.7 0l4.9-.3c1.6-.1 3.2-.2 4.8-.1l5-.5c1.6-.3 3.1-.7 4.8-.5V53v.4z"/>
  </symbol>

  <symbol id="logo-tablet" viewBox="19.1 15 112.4 46.1">
    <path d="M129.4 56.9c4.4.9.8-35.9.1-38.3-2-6.6-26.7-2.2-32.2-1.7-12.7 1-25.2-1-37.6-.4-6.2.3-34.8-1.8-37.5 2-5 7.2-2.7 25.8-1.3 35-4 .8 2.3 4.2 3.2 5 6.3 2.1 16.3-.3 23 .3 15.4 1.5 31.8-2.2 47.2-1 4.5 1.2 9.6 1.1 14.3 1.3 3.4 5.6 19.6-2.4 20.8-2.2-.1 0 .5 0 0 0z"/>
    <g fill="#FFF">
      <path d="M45.2 39.4c0-2.5-.5-5-.5-7.6 0-2 .4-4.2-.3-6.2l.1-.7c.2-1-3-.4-3.6.5-.3.3-.5.6-.3.9v.2c-.6 3-1.4 6-2.4 9l-1.3 3.3-1.5-3.2c-1.3-3.2-2.5-6.5-4-9.7 0-1.4-3.1-1.3-3.8 0a8.2 8.2 0 00-.4 5c.3 2 .4 3.9.4 5.8 0 3.8.3 7.6.4 11.3-.4.4-.5.9-.1 1.3l.5.6c.9.6 3.4 0 3.3-1.3 0-3.9-.2-7.8-.4-11.7v-1.1l.2.4c.6 1.5 1.2 3 2 4.4.9 1.4 1.3 3 1.8 4.4-.2.2-.3.5-.2.7 0 .2 0 .3.2.4.6.5 1.7.2 2.4 0l.8-.5c.3-.2.8-.6.6-1v-.3c.4-1.2.6-2.5.9-3.7.2-1.4.7-2.7 1.2-4l.2 1.8c.2 2.4 0 4.8 0 7.2 0 .8 0 1.6.2 2.4 0 .3.3 1.7.2 1.8-.5.5-.4 1.1.4 1.3.9.2 2 0 2.6-.7 1.2-1 .6-2.7.4-4-.5-2.2 0-4.7 0-7zM53.1 40c0-1.8-.7-3.6-.7-5.5 0-2.2.2-4.4-.1-6.6-.1-.6-3.9.1-3.8 1 .3 2 .2 4 .2 6s.4 3.8.7 5.7c.2 2-.1 4 .1 5.9.1.9.7 2.6.1 3.4-.4.5 1.4.3 1.5.3.7-.2 1.7-.4 2.2-1 .6-.8.2-2.3 0-3.2-.3-2 0-4-.2-6zM68.6 36.9c-2-2.6-5.6-.7-8.1-1.5-1.3-.3-1.3-2.1-1.3-3.2l-.3-4c0-1 0-2 .7-2.7l.8-.3h1c1.5-.1 4.4.1 3.8 2.3-.2 1 3.4.4 3.7-.6 1.2-4.4-7-3.6-9.2-3-2 .6-4.4 1.8-4.5 4.2 0 1.2.2 2.3.3 3.4 0 1.3-.2 2.7.3 4 1 2.8 5.2 1.4 7.3 1.6 3.7.3 2.6 5.2 2.7 7.5 0 1.2 1 3.2.2 4.2-.6.7-2 .7-2.7.8-.8 0-2 .3-2.6-.5-1-1.3 0-3.6-.1-5.1-.1-.9-3.9-.1-3.7 1 .3 2.5-1.4 5.8 2.3 6.2 2.3.3 4.9-.1 7-.8 1.2-.4 2.3-1 3.1-1.7 1-1 .7-2.3.4-3.4-.6-2.8.7-6-1-8.4zM85 36.7c0-3.6-.6-7.1-.6-10.7 0-1.9-3.8-1.2-3.8.3 0 3.5.5 6.8.7 10.2v.3l-5.5.2c.1-4.4-.6-8.8-.5-13.2 0-.5-3.6 0-3.7 1-.1 4.3.6 8.5.5 12.7-.1 2-.3 4-.3 6.1l.3 3.1c.2 1 .5 2.2.2 3.2-.2.7 3.4.2 3.7-.7.5-1.7-.3-3.8-.4-5.5-.2-1.7 0-3.4 0-5 2-.1 3.9-.3 5.8 0a149 149 0 00.5 7.2c0 1 .1 2.4-.2 3.3-.7 2 3 1.8 3.5.3.7-1.8.5-4 .4-5.8-.1-2.3-.5-4.7-.5-7zM101.1 41c-.9-2.6-2.2-5-3.4-7.4 1-1.9 2-3.7 2.8-5.6.8-1.7 1.4-3.6 3-4.8.5-.5.4-.9-.3-1-.9 0-2 .2-2.7.8a10.2 10.2 0 00-3 4l-2.8 5.8-.2.4a67.2 67.2 0 01-3 5.6c-.2-5.3-.9-10.5-1-15.8 0-1.2-3.8-.4-3.8 1C87 30.5 88 37 88 43.5c-.4.4-.3.6 0 .7 0 1.6 0 3.3-.2 5-.5.7.4 1 1 1 .8 0 2.6-.3 2.7-1.3.2-2 .2-4 .2-6 1.5-1.6 2.7-3.4 3.8-5.3a28 28 0 012 4.4c.7 2.6 2.1 5 2.9 7.6.5 1.7 4.2.7 3.7-1-.8-2.6-2-5-3-7.6zM123.4 36.6c-.2-.8-1.3-.8-2.1-.8v-1l-.4-7.5c-.2-2.4-1.5-3.2-3.8-3.1-2.3 0-5 .5-7 1.3a6.6 6.6 0 00-4.4 5.4c-.5 2.9.2 6 .3 8.8.2 3.3.1 6.6.1 10 0 .5 3.7 0 3.7-1v-8-2.3c1.2-.5 3.4 0 4.7.2l3-.3.3 6.6c0 1.1.4 3.3-.4 4.3-.4.5 1.5.3 1.5.3.8-.1 1.7-.4 2.2-1 1-1 .4-3.6.4-4.9l-.1-5.4c1-.1 2.2-.8 2-1.6zm-13.8-.2l-.3-3.5c-.2-2.2 0-5.3 2.2-6.7.5-.3 1.5-.3 2.2-.4 1-.1 1.8-.3 2.7.2 1.1.8.8 3.5.8 4.6 0 2 .2 3.8.3 5.7-.5 0-1 .1-1.6 0-2.1 0-4.3-.3-6.3.1zM50 25.4c.4 0 1-.2 1.3-.5l.3-.2c.5-.3.9-.8.7-1.3-.5-1-.5-2.1-.4-3.3 0-.9-1-1.1-1.7-1-.7 0-2 .5-2.1 1.4l.1 2.8v.3 1c.1.3.3.4.5.6.3.2.8.2 1.2.2z"/>
    </g>
  </symbol>

  <symbol id="logo-desktop">
    <path d="M143.2 31.4c-1.5 1-3 2-4.7 2.8 0-1.8-.1-3.5-.6-5.2l.2-1c.3-3 .6-7-2-9.2-.4-.2-1.3 0-2 .3l-.5-.4-.2-.8-.3-.2c.2-.4.2-.8-.5-1a18.6 18.6 0 00-1.3-.5 22 22 0 00-2.8-.7c0-.4.3-.8.5-1l.4-.5.2-.1v-.1h.2c.4-.3.8-1 .2-1.3-.6-.3-1.5-.1-2 .3-.9.6-1.6 1.4-2.1 2.3a50 50 0 00-6-.3c.2-.6-.8-.5-1.1-.5l-4.7.6c1.3-3.7 3-8.6 1-12.2C113.9.6 111 0 109 0c-2.5 0-5 .5-7 1.6-4.8 2.7-7.2 7.8-8.3 13.2-.5-.7-2.3-.4-2.6.4l-.3 1-.4.7v.1h-.2v-.3a73.9 73.9 0 012.2-7.2c.3-.7-2.4-.4-2.7.5-.5 1.2-.8 2.4-1.1 3.6-.2 0-.4.2-.5.3v.1a.9.9 0 00-.5-.2v-1c0-.4-2.8 0-2.8.8v1.6c-.2 0-.3.2-.5.3l-.2.1v.3H84v.1c-.2.2-.2.4 0 .5.1.2.4.2.6.2h.2v.4h-1.1c0-.4-.7-.5-1.3-.4v-.1l-.3-1.8c.3 0 .5-.2.7-.3.2-.1.3-.2.3-.5V14c0-.2-.4-.3-.5-.3H82V9.9c0-.9-2.9-.4-2.9.7 0 1.8 0 3.6.2 5.4h-.2v-1.6c0-1-1.3-1.2-2.2-.8.3-.2.5-.6.4-1-.4-1.4-.8-2.8-1-4.3-.2-1.4-3-.7-2.8.8.2 1.4.6 2.8 1 4.2.2.9 1.3 1 2 .6a1 1 0 00-.3.7v.6l-.8-.1c-1 0-1.6.9-1.4 1.5l-.5-.1c-.3-1.3-.7-2.5-.7-3.9 0-.9-1.2-1-2-.6l-.1-.2c-.4-.8-.6-1.7-.8-2.5-.3-1.4-3.2-.6-2.8.7l.5 2c-.4 0-.7.1-1 .3-.8.1-1.8.6-1.7 1.2l.2 1.5-1.6.2a12 12 0 01-.6-2.4c-.2-1-1.6-.9-2.4-.3-.7-2-1.8-4-3-5.7a11.2 11.2 0 00-11.3-3.8 9 9 0 00-5 2.6C39.8 7 39.7 8.6 40 10.3c.1 1.5.6 4 1.5 6l-.9.1-.8.4H34c-4.2-.2-8.3-1-12.5-.8-1 0-1.6.7-1.5 1.3-1 .5-1.7 1.3-2.1 2.3a54 54 0 00-5.4-3.3c-.7-.3-3.3.8-2.3 1.3 1.9 1 3.6 2 5.3 3.2.5.3 1.3.1 1.9 0l.1-.2c-.3 1.5-.1 3.1.3 4.5l.1.3v1.2c-.4.2-.7.5-.7.8-.2 1.4-.3 2.8-.3 4.3a1 1 0 00-.5.8c-.3 3.3 0 6.6.4 9.9.2 2.7.7 5.3 1.2 8l.2 1.2a9.7 9.7 0 00-.3 3.5c-.8.2-1.7.9-1.2 1.6.8 1.2 1.7 2 2.6 2.7-.6-.1-1.4.1-1.9.6L15 62.3c-.4.4-.3 1 .3 1 .7.2 1.5 0 2-.5l2.5-2.3c.3-.3.3-.5.2-.7 3.2 1.7 7.3 1.2 11.1 1-.8 1.5-1.5 3.2-2.1 4.9-.3.7 2.5.4 2.8-.4.6-1.7 1.2-3.4 2-5 3.8.2 7.6.2 11.3.1.1.2.4.3.7.4 3.3.3 6.5-.1 9.7-.7l14.4-.8c7.5-.2 15-.4 22.6-.4l.3.3c.3.3.6.4 1 .4h.2a69.7 69.7 0 012.7.2l2.3.2.8.4 11.4.7c.2.2.6.3.9.3 7 0 15.2 2.8 21.5-1.7.5-.4.3-1-.2-1a2 2 0 00-.4 0c1.2-2.9 2.2-5.7 3-8.6.4-.2.6-.5.6-1a34.6 34.6 0 01.9-6.2c.3-2.2.8-4.4 1-6.5a50 50 0 006.6-3.9c1.6-1-.8-1.8-1.8-1.1zm-55.4-15h-.1a50.8 50.8 0 01.3-.9l-.2.9z"/>
    <path d="M63.3 12.6c0 .2.5.2.7.2.4 0 .8 0 1.1-.2.4-.1 1.1-.5.8-1l-1-1.8c-.1-.2-.5-.2-.7-.2a3 3 0 00-1.1.2c-.4.2-1.1.6-.8 1 .3.6.6 1.3 1 1.8zM20.7 11c.2.6 1 .6 1.6.4.5-.1 1.4-.6 1.2-1.2-.2-.7-.4-1.3-.9-1.8s-1.3-.4-1.9-.2c-.4.2-1.2.9-.7 1.4.4.4.5.7.7 1.3zM30.7 13.9c.8 0 3-1.3 1.1-1.3-.8 0-3 1.3-1.1 1.3zM122.6 12.3h1c.3-.2.7-.3 1-.6a5 5 0 001-1.1V10l-.8-.3-1.2.2c-.2.1-.6.3-.7.6a3 3 0 01-.4.5l-.2.3c-.2.1-.4.3-.3.6 0 .2.3.3.6.4zM135.9 17.7c.6 0 1.4-.3 1.9-.7 1.3-1 2.6-2.2 3.6-3.6.3-.4-1-.3-1.1-.2-.6 0-1.4.2-1.7.7-1 1.3-2.2 2.4-3.4 3.4-.5.4.4.4.7.4zM146.7 44.8H142c-.6 0-1.5.4-1.6 1.1 0 .7.8 1 1.3 1h4.9c.6 0 1.5-.5 1.5-1.2.1-.7-.7-1-1.3-1zM57 60.8c-.5 0-1.4.3-1.6.8-.6 1.3-1 2.6-1.4 4-.2.6 2.6.2 2.8-.5.4-1.4.8-2.7 1.4-4 .2-.5-1-.3-1.2-.3zM61.6 63.4l-1 .1-1 .4c-.1 0-.3.2-.3.4v.3a.8.8 0 01-.2.3v.3h.8c.3 0 .7 0 1-.2.3-.1.7-.2.9-.4l.2-.5v-.6l-.4-.1zM116.7 67c-.4-.6-3 .4-2.9.8.9 1.6 2 3.1 3 4.7.4.7 3-.4 2.8-.8-1-1.5-2.1-3-3-4.6zM120.7 64.7c-.3-.6-1-.6-1.6-.4-.3 0-1.5.6-1.2 1.2l1.2 2.3c.3.6 1 .6 1.6.4.4 0 1.5-.6 1.2-1.1l-1.2-2.4zM5.7 43.1l-4.5 1c-.5.1-1.4.6-1.2 1.3.2.7 1.2.7 1.7.6l4.5-1c.5-.1 1.3-.7 1.1-1.3-.2-.7-1-.7-1.6-.6z"/>
    <g>
      <g fill="#FFF">
      <path d="M43.8 40.1c-.1-2.7-.6-5.4-.5-8.1 0-2.2.4-4.5-.4-6.6l.2-.7c.1-1-3.3-.5-3.9.5-.3.3-.5.6-.4 1l.1.2a79 79 0 01-2.6 9.5c-.4 1.2-1 2.4-1.3 3.6L33.3 36c-1.4-3.5-2.6-7-4.3-10.3.2-1.6-3.2-1.4-4 0a8.7 8.7 0 00-.4 5.3c.3 2 .4 4 .4 6.1 0 4 .4 8 .4 12-.3.5-.4 1 0 1.5l.5.5c1 .7 3.6.1 3.6-1.3 0-4.1-.4-8.3-.5-12.4v-1.3l.2.5c.6 1.6 1.3 3.2 2.2 4.7.9 1.5 1.3 3 1.8 4.7-.2.2-.3.5-.2.7 0 .2 0 .3.2.4.7.5 1.9.2 2.6 0l.8-.5c.3-.2.9-.7.7-1.1v-.3l1-4a25 25 0 011.2-4.2l.2 2c.2 2.5 0 5 0 7.6 0 .9 0 1.7.2 2.5 0 .3.4 1.8.3 1.9-.6.6-.5 1.3.4 1.4.9.3 2 0 2.8-.7 1.2-1.1.6-2.9.3-4.3-.4-2.3.1-5 0-7.4zM52.2 40.8c0-2-.8-4-.8-6 0-2.3.2-4.6-.1-6.9-.2-.7-4.1.1-4 1 .3 2.2.2 4.3.2 6.5 0 2 .4 4 .7 6 .3 2 0 4.1.1 6.2.2 1 .8 2.8.1 3.6-.4.6 1.5.4 1.6.4.8-.2 1.8-.4 2.3-1 .7-1 .2-2.5 0-3.5-.2-2 0-4.2-.1-6.3zM68.7 37.4c-2.1-2.8-6-.7-8.7-1.5-1.4-.4-1.4-2.3-1.4-3.4 0-1.5 0-2.8-.2-4.2-.2-1 0-2.2.7-3l.8-.3H61c1.6-.2 4.7.1 4 2.4-.2 1 3.7.4 4-.6 1.2-4.7-7.4-3.8-9.8-3.1-2.2.6-4.7 1.8-4.8 4.4l.3 3.6c0 1.4-.2 2.8.3 4.2 1 3 5.6 1.6 7.8 1.7 4 .3 2.8 5.6 2.8 8 0 1.3 1.2 3.5.2 4.5-.6.7-2 .7-2.8.8-.8 0-2.2.3-2.8-.4-1-1.5.1-3.9 0-5.5-.2-1-4.2-.1-4 1 .3 2.7-1.4 6.2 2.4 6.7 2.5.3 5.2-.2 7.6-1a9 9 0 003.2-1.8c1-1 .7-2.3.5-3.5-.7-3 .7-6.4-1.2-9zM86.2 37.2c-.2-3.8-.7-7.5-.8-11.4 0-2-4-1.3-4 .4 0 3.6.6 7.2.7 10.9v.2l-5.9.2c.2-4.6-.6-9.3-.4-14 0-.5-3.9 0-4 1.1-.1 4.5.6 9 .5 13.5l-.2 6.5.3 3.3c.1 1 .5 2.3.2 3.3-.3.8 3.6.3 3.9-.7.5-1.8-.3-4-.4-5.9-.2-1.7 0-3.5 0-5.3 2-.1 4.1-.3 6.2 0a159 159 0 00.5 7.7c0 1 .1 2.5-.2 3.5-.8 2 3.2 1.9 3.7.4.7-2 .5-4.3.4-6.3-.1-2.4-.5-4.9-.5-7.4zM103.2 41.8c-1-2.8-2.4-5.3-3.6-8l3-5.8c.8-1.9 1.4-3.9 3-5.2.6-.4.6-.9-.2-1-.9 0-2 .2-2.8.8a10.8 10.8 0 00-3.2 4.3l-3 6.1-.2.5c-.5.3-.8.8-.6 1.3a72 72 0 01-2.6 4.6c-.3-5.6-1-11.1-1.1-16.7 0-1.3-4-.5-4 1 .3 7 1.3 13.9 1.3 20.8-.3.4-.2.5 0 .7 0 1.7 0 3.5-.2 5.3-.5.7.5 1.1 1.1 1.1h.1c.8 0 2.7-.3 2.8-1.4.2-2 .2-4.2.2-6.3 1.6-1.7 3-3.7 4-5.7.9 1.5 1.6 3 2 4.6 1 2.8 2.4 5.3 3.3 8.1.5 1.8 4.4.8 3.9-1-.8-2.8-2.2-5.4-3.2-8.1zM127 37c-.3-.8-1.4-.8-2.3-.7v-1c-.2-2.7-.2-5.4-.5-8.1-.2-2.5-1.6-3.4-4-3.3-2.4.1-5.2.5-7.5 1.4a7 7 0 00-4.6 5.8c-.6 3 .2 6.2.4 9.3V51c0 .6 4 0 4-1v-8.5l-.1-2.4c1.3-.6 3.7 0 5 .1 1.2.1 2.2-.1 3.3-.3l.2 7c0 1.2.5 3.6-.3 4.6-.5.5 1.5.3 1.6.3.8-.1 1.7-.4 2.3-1 1-1.2.4-3.9.4-5.2l-.2-5.8c1.2-.1 2.5-.9 2.3-1.7zm-14.8 0l-.3-3.8c-.2-2.4.1-5.7 2.3-7.1.6-.4 1.7-.3 2.4-.4 1-.2 2-.4 2.8.1 1.3.9 1 3.7 1 5l.3 6H119c-2.3 0-4.6-.3-6.8.1zM48.8 25.2c.5 0 1-.3 1.5-.6l.2-.2c.5-.3 1-.8.8-1.3-.6-1.2-.5-2.3-.5-3.5 0-1-1-1.2-1.8-1.2-.7 0-2.1.6-2.2 1.6 0 1 0 2 .2 3l-.2.3c0 .3 0 .5.2.6v.5c0 .2.2.4.4.5.4.3 1 .3 1.4.3z"/>
      </g>
    </g>
  </symbol>

  <symbol id="search" viewBox="-0.8 -0.8 17.6 17.6">
    <path fill="#231F20" d="M16.5 15L13 11.4A7.7 7.7 0 006.9-.8a7.7 7.7 0 104.6 13.9l3.4 3.4c.2.2.4.3.8.3.6 0 1.1-.5 1.1-1.1 0-.2 0-.5-.3-.8zM1.4 6.8a5.5 5.5 0 1111 0 5.5 5.5 0 01-11 0z"/>
  </symbol>

  <symbol id="basket" viewBox="264.2 371 20.3 18.8">
    <path fill="#231F20" d="M283.8 378.2h-3.2l-3.4-6.8a.7.7 0 10-1.3.6l3 6.2h-9.1l3-6.2a.7.7 0 00-1.3-.6l-3.4 6.8H265a.8.8 0 000 1.5h.1l.9 3c-.2.1-.3.3-.3.6 0 .4.3.7.7.7l1.6 5.8h12.7l1.7-5.8c.3 0 .7-.3.7-.7 0-.3-.2-.5-.4-.6l.9-3h.2a.8.8 0 100-1.5zm-4.2 10.1H269L268 384h12.9l-1.2 4.3zm1.6-5.8h-13.7l-.8-2.8H282l-.8 2.8z"/>
  </symbol>

  <symbol id="left-arrow">
    <path d="M50 11H7.7l8.1-8.2L13 0 0 13l13 13 2.8-2.8L7.7 15H50z"/>
  </symbol>

  <symbol id="right-arrow">
    <path d="M0 11h42.3l-8.1-8.2L37 0l13 13-13 13-2.8-2.8 8.1-8.2H0z"/>
  </symbol>

  <symbol id="logo-footer">
    <path d="M19.1 21.5c0-2.7-.5-5.4-.4-8 0-2.2.3-4.4-.4-6.5l.1-.7c.2-1-3.2-.5-3.8.4-.3.3-.5.6-.3 1v.2c-.6 3.2-1.5 6.3-2.6 9.4L10.4 21l-1.6-3.4c-1.4-3.4-2.6-6.9-4.3-10.2.2-1.5-3.2-1.4-3.9 0a8.6 8.6 0 00-.4 5.2c.3 2 .3 4 .4 6.2 0 4 .3 7.9.4 11.9-.4.4-.5.9-.1 1.3l.6.6c.9.7 3.5.1 3.5-1.3 0-4.1-.3-8.2-.5-12.3a98 98 0 01.2-.8c.6 1.6 1.3 3.2 2.2 4.6.8 1.5 1.3 3.1 1.8 4.7-.2.2-.3.5-.3.7 0 .2.1.3.3.4.6.5 1.8.3 2.5 0l.8-.4c.4-.3 1-.7.8-1.2l-.1-.3 1-4c.2-1.3.7-2.7 1.2-4l.2 1.8c.2 2.6 0 5 0 7.6 0 .9 0 1.7.2 2.5 0 .3.4 1.8.3 1.9-.6.6-.4 1.2.4 1.4.9.2 2 0 2.8-.7 1.2-1.1.6-2.9.3-4.3-.4-2.3.1-5 0-7.3zM27.5 22.2c0-2-.8-3.9-.8-5.9 0-2.3.2-4.6-.1-6.9-.1-.7-4 .1-4 1 .4 2.2.2 4.3.2 6.4 0 2 .5 4 .7 6 .3 2 0 4 .2 6.1.1 1 .7 2.8 0 3.6-.3.5 1.5.4 1.6.3.8-.1 1.8-.4 2.3-1 .7-.8.2-2.4 0-3.4-.2-2 0-4.2-.1-6.2zM43.8 18.9c-2-2.8-5.9-.8-8.5-1.6-1.4-.4-1.4-2.3-1.4-3.4 0-1.4-.1-2.7-.3-4.1-.1-1 0-2.2.7-3l.9-.3h1c1.6-.1 4.6.2 4 2.4-.2 1 3.6.4 4-.6 1.1-4.6-7.4-3.7-9.8-3.1-2.2.6-4.6 1.8-4.7 4.4-.1 1.2.2 2.4.3 3.6 0 1.4-.2 2.8.3 4.1 1 3 5.5 1.6 7.8 1.7 3.8.3 2.6 5.5 2.7 8 0 1.2 1.2 3.4.2 4.4-.6.7-2 .7-2.8.8-.8 0-2.2.3-2.7-.5-1-1.4 0-3.8-.1-5.4-.2-.9-4.1 0-4 1 .4 2.7-1.4 6.2 2.4 6.7a18 18 0 007.5-1c1.2-.4 2.3-.9 3.3-1.8s.7-2.3.4-3.5c-.7-3 .7-6.3-1.2-8.8zM61.2 18.7c-.2-3.8-.7-7.6-.8-11.3 0-2-4-1.3-4 .3.1 3.6.6 7.2.8 10.8v.2l-5.9.2c.2-4.6-.6-9.2-.4-13.8 0-.6-3.9-.1-4 1 0 4.5.7 9 .5 13.4l-.2 6.4.3 3.3c.2 1 .5 2.3.2 3.3-.3.8 3.5.3 3.8-.7.6-1.8-.2-4-.4-5.8-.1-1.8 0-3.5.1-5.3 2-.1 4-.3 6.1 0a160.4 160.4 0 00.5 7.6c0 1 .2 2.5-.2 3.5-.8 2 3.2 1.9 3.7.3.7-1.8.5-4.2.4-6.1-.1-2.5-.5-4.9-.5-7.3zM78 23.1c-.9-2.7-2.3-5.1-3.5-7.8l2.9-5.8c.8-1.9 1.4-3.9 3-5.1.7-.5.6-1-.2-1s-2 .2-2.7.7a10.7 10.7 0 00-3.2 4.3l-3 6-.2.5c-.5.4-.8.8-.6 1.3a72 72 0 01-2.5 4.6c-.3-5.5-1-11-1.2-16.6 0-1.3-4-.5-3.9 1 .3 7 1.2 13.8 1.3 20.6v.1a60.8 60.8 0 01-.2 5.9c-.5.7.5 1 1 1h.2c.7 0 2.6-.3 2.7-1.3.2-2 .2-4.2.2-6.3 1.6-1.7 3-3.6 4-5.6.8 1.5 1.6 3 2 4.6 1 2.7 2.4 5.2 3.2 8 .5 1.8 4.5.7 4-1-1-2.8-2.3-5.3-3.2-8zM101.6 18.5c-.2-.8-1.4-.8-2.3-.8v-1l-.4-8c-.2-2.5-1.6-3.3-4-3.3-2.4.1-5.2.6-7.5 1.4a7 7 0 00-4.5 5.7c-.6 3 .2 6.2.4 9.3v10.5c0 .6 4 0 4-1v-8.4l-.2-2.4c1.4-.6 3.7 0 5 .1 1.2.1 2.2-.1 3.3-.3l.2 7c0 1.2.5 3.5-.3 4.5-.5.5 1.5.3 1.5.3.8-.1 1.8-.4 2.3-1 1-1.2.5-3.8.4-5.2l-.1-5.7c1.1-.1 2.4-.8 2.2-1.7zM87 18.4l-.3-3.8c-.2-2.3 0-5.6 2.3-7 .5-.4 1.6-.3 2.3-.4 1-.2 2-.4 2.8.2 1.3.8 1 3.6 1 4.8l.3 6-1.7.1c-2.3 0-4.6-.4-6.7 0zM24.1 6.7c.5 0 1-.2 1.5-.5l.2-.2c.6-.4 1-.9.8-1.4-.5-1.1-.5-2.2-.4-3.4 0-1-1-1.3-1.8-1.2-.8 0-2.2.6-2.2 1.5l.1 3-.1.4.1.6v.4c.1.3.3.4.5.6.4.2.9.2 1.3.2z"/>
  </symbol>

  <symbol id="instagram" viewBox="53.1 53.2 21.8 21.3">
    <path fill="#231F20" d="M74.9 65.3c0-2.4-.4-4.8-.3-7.1l-.2-2.3-.1-1c-.3-.2-.2-.7-.5-.9-.4-.2-1.2 0-1.7-.2l-2-.1-6-.1c-2 0-3.9-.2-5.6-.4h-2.2c-.1 0-.1.1-.2 0l-1.6.4-.7.3c-.2.2-.5.1-.6.4-.2.2.2.4 0 .6v.9c.1.1 0 .6 0 .8v1c0 1.3.2 2.4.1 3.7.5 2.8.4 6.6.1 9.4l.5 1.8c.2.5.3 1.1.6 1.5.5.2 1.3.2 2 .2.3.1.6.3 1 .3 3-.2 5.6-.1 8.5-.2 2.7.2 5.8.2 8.3-.2.2-.2.1-.6.2-.8 0-.4.2-.4.2-.7.2-2.4.2-4.8.2-7.3zm-13-6.2c.8-.1 1.5-.3 2.4-.3.7 0 1.3.3 2 .5 0 .1-.3.5 0 .6v.1l.2.1c.5 0 .8.2 1 .4.5 0 .6.5 1.2.3v.8c.3 1.2.4 2.8.3 4.3-.2.1-.3.4-.3.6-.4.4-.5.8-.9 1.1a1 1 0 01-.4.5c-.2.3-.2.5-.5.6-.3.1-.6 0-.8-.1-.5.2-1 .3-1.2.6-.9 0-1.7-.2-2.5-.3a2 2 0 00-.8-.3 2 2 0 00-.8-.5c-.1 0-.4 0-.5-.2-.2 0-.2-.2-.5-.2 0-.4-.4-.6-.5-1l-.4-1.3c0-1.4 0-2.7.3-3.8l1.2-1.7c.2 0 .3 0 .4-.3h.6c.3 0 .3-.3.5-.5zm-1.7-2.7v-1c0-.4.2-.4.3-.6h-.2c.1-.2.7-.2.8 0 .2.4-.3.4-.5.6 0 .2.3 0 .5 0v2.3h-.5c0 .2.2.2.5.2v.6c-.2.2-.7 0-1 0-.1-.5.2-1.3.1-2.1zm-.7-1.6h.2c.2.3 0 .7 0 1-.3-.2-.1-.7-.2-1zm.2 1.8l-.2-.4c.2 0 .2.2.2.4zm0 1.4v-.2.2zm-.2.2c.2 0 .1.2.3.2 0 .2-.3.2-.4.1l.1-.3zM57.2 57v-.2c-.2-.8 0-1.5 0-2 .2-.2.7 0 1 0v1l-.3.1c0 .3.3.2.4.3 0 .9-.1 1.8.1 2.5H57c0-.6 0-1.4.5-1.6l-.3-.1zm-.5 0c-.2 0-.3-.5-.1-.6.3 0 .2.5 0 .6zm-.2 1v-.7c.3 0 .3.8 0 .7zm.2-2c-.2 0-.2-.3-.1-.5.2 0 .3.3.1.4zm0-1.2v.3c-.2 0-.1-.2-.3-.2l.3-.1zm-.2 3.7c.2 0 .1.4 0 .2v-.2zm-.7-3.7c0 .2-.4.3-.4 0h.4zm-1 0c0 .3-.3.2-.3.4-.3-.1 0-.4.3-.3zm-.4.8l.7-.6v-.2h.3c0 .4-.3.3-.3.5l-.1.2v1c-.2 0-.2.3-.5.3 0-.5-.2-.7-.1-1.2zm0 3.3v-1.6l.7-.5c.3.4.1 1.3.4 1.9-.3.1-.7 0-1 .2zm18.3 11l-.4 2.9-8.9.1c-.2 0-.3 0-.2-.2-.3 0-.3.2-.5.2.2-.3.4-.9.1-1.3-.8 0-.8.9-1.1 1.3-.7 0-1.2.2-1.9.1.2-.7.8-1 1-1.7-.4-.6-1 .1-1.3.4l-.7 1.3h-1l.8-1.4c.1-.5.6-.7.6-1.3-.1-.3-.4 0-.6 0l-.4.5-.7 1.1c-.2.3-.3 0-.5.3-.4.2-.6.7-1 1-.2-.1 0-.4.1-.4l.1-.6c0-.4.2-.7.4-1 .1-.7.5-1.1.7-1.8-.6 0-.7.6-1 1-.2.4-.6.7-.7 1.2-.2 0 0-.5 0-.8 0-.6.2-1.1.3-1.7l.2-.9c.2-.2 0-.6 0-.7-.3 0-.4.1-.5.3-.2 0-.2.5-.3.3 0-2.6-.5-4.8-.5-7.5l-.2-.7 4.8.3-.3.4c-.2 0-.2.1-.4.3-.6 1.6-1 4-.6 6.1.2.6.6 1 1 1.5.9.4 1.6 1.1 2.5 1.6 1.7.4 3.8.4 5.5 0l.7-.4c1.4-1.2 2.8-2.4 3-4.8v-1.4C70.6 62 70 60.6 69 60c.4-.2 1.1 0 1.7 0H72.8c.2.2.1.6.3.8l-.2 5.1.2 1.4c0 1-.2 2-.4 2.8zm.4-11l-2-.5c.1-.3.9 0 1-.2.4-.2.3-1 .4-1.5v-1c-.4-1-1.8-.5-2.9-.5a6 6 0 00-.3 2.6c.2.5 1 .3 1.6.5-.2.3-.7 0-1 0h-7.5l-.1-3.6h3c-.3.4-.8.5-1.2.9-.4.2-.9.5-1.1.9.2.1.5-.3.7-.4.4 0 .5-.4.9-.5.4-.4 1-.6 1.6-.9h1l3.8.2c.6.1 1.5 0 2 .3l.3.9-.2 2.7zM67.2 55c.1 0 0-.1 0 0zm0 0c-.5.1-1 .3-1.4.7.5-.2 1.1-.3 1.4-.7zm1 .6c.2 0 0-.1 0 0zm-1.7 1c.8-.3 1.2-.7 1.8-1-.5 0-.6.3-1 .4-.2.2-.6.2-.8.5zm-.7-1c0 .1 0 .2 0 0zm-.6.7s0-.1 0 0zm-.1 0zm0 .1zm-1 .6c.4-.1.7-.3 1-.6a2 2 0 00-1 .6zm2.4 1c.5 0 .7-.4 1.2-.5.3-.3.8-.4 1-.8-.6 0-.8.4-1.3.6-.2.3-.7.4-1 .7zm-2.3-1c-.3 0 0 .3 0 0zm-.6.4h.1s-.1 0 0 0zm2.9.6c-.2 0 0 .1 0 0zM65.3 60c-.2-.2-.7-.2-1-.3-.7 0-1.2 0-1.7.2l-1 .5-.7.5c-.2.2-.3.5-.7.6 0 .2-.1.3-.3.4 0 0 0 .3-.2.3v.4c0 1.5.2 2.9.6 4.1.3.7 1 .9 1.4 1.3.6.3 1.4.5 2.2.5h.9a5 5 0 002.8-1.5l.4-.7c-.2-.6.3-1 .5-1.5 0-1.4-.2-2.5-.6-3.5-.3-.5-1-.7-1.4-1l-.1-.2c-.3-.1-.8-.2-1 0zM62 64.3l-.2-.4c.3 0 .2.2.2.4zm0 .3c.1-.1.2 0 .2 0 0 .2-.1 0-.1 0zm.5-2c0-.2.1-.1.1 0zm1.7-2.2c-.2.3 0 .6 0 .8-.2 0-.5-.8 0-.8zm.4 4v-.1c.1 0 0 0 0 0zm.7 2.8h.2c0 .1-.2.1-.2 0zm2.2-2.5c-.2-.1-.1.2-.3.1 0-.2 0-.3.2-.4.1 0 .2 0 .1.3zm-1.1-3.8l.6.3c0 .3.3.4.4.6 0 .7.2 1.5.1 2.3l-.6.4c-.8 0-1.4-.2-2-.5l-.5-.7v-1l.5-.7c.2-.1.5-.2.4-.6v-.2l.3.2c.4 0 .5-.2.8-.1z"/>
  </symbol>

  <symbol id="facebook" viewBox="56.5 50 15 27.7">
    <path fill="#231F20" d="M68.2 55.2c1 0 2 0 2.7-.3.4-.8.5-1.9.6-3-.2 0 0-.3-.2-.4 0-.2-.3-.2-.3-.4l-.8-.6-2.1-.5c-.9 0-2-.1-2.6.1-2.6 0-4 1.1-5.3 2.4v.2c-.6 1.6-.2 3.6-.3 5.6l.2 1.4c-1 .3-2.2.4-3.4.5-.3.3-.1 1-.2 1.7l.4 1.6.9.5c.6.3 1.5 0 2.3.2-.1 2 .3 3.9 0 5.6 0 .4.3.4.2.8 0 1 0 2 .3 2.7-.3.5-.5 1-.5 1.8.2 0 .2.2.1.3 0 .5.7.2.6.7.1.5-.5.2-.5.5v1c.6.2 1.5 0 2.3.1 1-.4 2.2-.5 2.8-1.2.5.2 1 0 1.2-.2 0-.3.3-.3.2-.7v-3.8c-.3-2.3-.1-5-.4-7.1 1-.2 2-.1 2.6-.4.4-.5.4-1.3.5-2 .2-.2.2-.5.2-1 .2-.1.1-.7.1-1-.1-.6-.1-1.3-.8-1.4-.9-.3-2 .6-3 .3 0-1.2-.3-2.4 0-3.4l2.2-.6zM64.4 60l.4.7h.2c1.2.1 2.2 0 3-.2 0 1-.2 1.7-.4 2.5-.7 0-1.5.3-2 .2-.3.1-.4.5-.6.7 0 .4.1.5 0 .8-.2 0 0 .6-.2.8v1.4c0 .3-.2.3-.1.5V71v3.5c.1.3 0 .8.2 1 0 .3-.4-.1-.8 0-.6.1-1 .4-1.6.4.1-.3.3-.6.3-1 0-.5-.3-.4-.5-.6.2-.6.6-1 .7-1.8.2-.5.7-1.3.3-1.8-.5 0-.5.3-.8.4v.2l-.2.2c0 .2-.1.1 0 0l.1-.2.1-.2v-.3c.4-.5.7-1.2.8-2 .2-.2.3-.6.4-1 .2-.2.4-.8.2-1.1-.6 0-.8.3-1 .7-.3-.2.2-.5.1-.7l.3-.8c.2-.5.6-1.3 0-1.6-.4 0-.6.2-.7.5-.2.2-.4.3-.5.7-.4-.1-.1-.8-.2-1.1V63c-.6-.8-2-.1-3.2-.3-.1-.3-.2-1-.1-1.2 1-.1 2.5.2 3.2-.2v-.2c.2-.7-.2-1-.4-1.4.2-.8 0-2 0-3l.6-.6c.1-1 .7-1.5.7-2.5-.3 0-.6 0-.6.2-.3-.1-.4.5-.5.2-.1-.5.2-.6.3-1l1.8-1.2c1.8-.2 4.7-.4 6.1.2 0 .6-.3.9-.2 1.5h-1.5c-1.1.2-2 .7-3 1-.3 0-.3.3-.5.4 0 .4-.3.6-.3 1v4z"/>
  </symbol>

  <symbol id="twitter" viewBox="52.3 53.8 23.5 20.2">
    <path fill="#231F20" d="M75.7 57.9c-.2-.4-.9-.3-1.4-.4h-1.1l.5-1c0-.4.3-.7.2-1.2l.3-.6c.1-.2.3-.5.1-.7 0-.2-.3-.2-.6-.2l-.2.1-1.3 1.4-.1.1-.4.2c-.3.2-.5.5-.9.6a6 6 0 00-1.8-.4c-1.2 0-2.3.2-3 .7-1 .4-1.6 1-2.2 1.7 0 .3-.4.3-.4.7l-.1.6c0 .1.2.4 0 .5-.9-.1-1.5-.6-2.2-1-.7-.3-1.5-.6-2-1a6 6 0 01-1.8-1.4c-.2-.3-.6-.5-.7-.9-.4-.2-.2-1-.7-.9-.4 0-.4.2-.5.4 0 .2-.4.2-.4.5-.2 1.2-.6 2-.6 3.3l.6 1c-.4.1-.7.3-.9.6 0 1 .4 1.6.8 2.3.1.4.3.7.6 1 0 .2.2.2.3.4l.1.2c0 .1.3.2.1.2-.4.2-1 .1-1.3.4a2 2 0 000 1.1c0 .3.3.3.3.5.5.5 1.1.8 1.7 1.2l1.8.3c0 .4-.3.6-.6.8-.8.4-1.8.4-2.7.7l-1.6.2c-.3.2-.8.1-1 .3-.2 0-.2 0-.3.2-.1.4.1.7.4.9 0 .2.3.2.4.3l.5.4c.5.5 1.2.8 1.9 1.1l2.5.5c.9.2 1.9.2 2.8.3h3.4c.5-.3 1.1-.4 1.6-.8.6-.2 1-.6 1.5-.9 1-.7 2-1.3 2.6-2.3l.4-.8c.3-.1.4-.4.6-.6l1-1.4 1-1.6.2-.9c.2-.2.2-.7.4-.9v-.6c.1-1.2 0-2.4-.2-3.4.6-.1 1.1-.3 1.6-.6.5-.2 1-.6.8-1.2zm-3.4 4c-.2.9-.6 1.4-1 2l-.1 1c-.2.2-.3.6-.4 1l-.5.8-1.2 1.6-1.3 1.5-1.4 1.3a5 5 0 00-1.3.7 5 5 0 00-.7.3c-.1.1-.5.1-.6.3l-3.6.1-3-.3c-1-.2-1.5-.8-2.3-1 .1-.3.6-.2 1-.3 0-.2.3 0 .4-.2h.5c.6-.2 1.2-.3 1.7-.6.3-.2.4-.5.7-.6 0-.2 0-.4.2-.5l.2-.8c0-.2.3-.3.2-.6 0-.2 0-.4-.2-.4 0-.2-.4 0-.5-.2l-.6-.1H58c-.8-.1-1.3-.5-1.9-.8.5-.3 1-.4 1.4-.8.5 0 1 0 1-.6 0-.7-.7-.7-1.2-.8-.8-.7-1.2-1.7-1.8-2.6l.7-.4c.5 0 .6-.3.7-.5 0-.5-.3-.6-.6-.8l-.7-.8.1-2.4v.1l.9 1.2c.5.4 1 .9 1.5 1.1.5.4 1.2.6 1.6 1l1.7 1c.7.1 1 .6 2 .5l.6-.3c.3-.4 0-1 .1-1.6.3-.6.8-1 1.3-1.5l.8-.5c.4 0 .7-.2 1-.4l1-.1h1.3l.7.1c.2.2.4.4.7.4.8.7 1.3 1.7 1.4 3V62zm.3-5.6c-.1.3-.2.7-.6.8l-.1-.2c0-.2.2-.2.2-.3.2 0 .3-.3.5-.3 0 0 .1 0 0 0zm-5.5 3l.5.4c.1.2.3.3.6.4 0-.2.4 0 .4-.2.2 0 .2-.3.3-.3 0-.6-.1-1-.4-1.4-.7-.4-1.7 0-1.4 1.1z"/>
  </symbol>

  <symbol id="logo-academy">
    <path d="M13.6 0h-.1L0 1.4v24.7l13.5 8 13.4-8V1.4L13.6 0zM25 12.1L13.5 5.3h-.2L2 12.1v-9L13.5 2 25 3.1v9zM13.4 6.8L25 13.5l-4.5 2.6-7-4.2v1.4l5.8 3.5-.8.6-5-3v1.4l3.8 2.3-.8.5-3-1.8v1.4l1.8 1-1.8 1.2L2 13.6l11.4-6.8zM1.9 15L13.3 22v1l-7.9-4.7v1.4l8 4.8v1.1l-8-4.7v1.4l8 4.8 8.2-4.8V17l3.4-2v10l-11.5 6.9-11.6-7v-9.8z"/>
  </symbol>
</svg>
